<svg width="192" height="50" viewBox="0 0 192 50" fill="none" xmlns="http://www.w3.org/2000/svg">
<g clip-path="url(#clip0_2136_35)">
<path d="M4.80349 2.18775C2.08284 2.18775 0 4.20645 0 6.92125C0 8.02507 0.338835 9.00955 0.906883 9.79515C1.76394 10.9785 3.16911 11.7144 4.80349 11.7144C6.43787 11.7144 7.83307 11.0084 8.70009 9.86476C9.308 9.06922 9.6568 8.06484 9.6568 6.92125C9.6568 4.20645 7.57396 2.17781 4.80349 2.17781V2.18775Z" fill="#007A4C"/>
<path d="M4.80347 13.7132C3.16908 13.7132 1.76391 12.9773 0.90686 11.794V38.3453H8.70007V11.8636C7.83305 13.0072 6.43785 13.7132 4.80347 13.7132Z" fill="#007A4C"/>
<path d="M76.8559 2.18774C74.1352 2.18774 72.0524 4.21638 72.0524 6.93118C72.0524 8.035 72.3912 9.01949 72.9592 9.80509C73.8163 10.9885 75.2215 11.7243 76.8559 11.7243C78.4902 11.7243 79.8854 11.0183 80.7525 9.8747C81.3604 9.07915 81.7092 8.07478 81.7092 6.93118C81.7092 4.21638 79.6263 2.18774 76.8559 2.18774Z" fill="#007A4C"/>
<path d="M76.8558 13.7132C75.2215 13.7132 73.8163 12.9773 72.9592 11.7939V38.3453H80.7524V11.8636C79.8854 13.0072 78.4902 13.7132 76.8558 13.7132Z" fill="#007A4C"/>
<path d="M41.3578 20.8731V38.3453H33.5646V23.4885C33.5646 20.187 31.4818 18.0589 28.2828 18.0589C25.0837 18.0589 22.682 20.2466 22.682 23.5979V38.3552H14.8888V11.1874H22.682V13.9022C24.8147 11.7144 27.5951 10.5509 30.9536 10.5509C37.2021 10.5509 41.3578 14.648 41.3578 20.8831V20.8731Z" fill="#007A4C"/>
<path d="M44.9954 34.8847L48.6229 29.8827C50.7057 31.6428 53.2669 32.8162 56.4161 32.8162C58.9773 32.8162 60.7412 32.0704 60.7412 30.6285C60.7412 29.0871 58.6584 28.5501 55.8879 27.9137C51.5628 26.959 45.8524 25.6762 45.8524 19.282C45.8524 13.4248 50.9748 10.5509 57.1635 10.5509C61.967 10.5509 65.4351 12.2514 67.9963 14.1209L64.3688 19.1229C62.3357 17.7407 60.1034 16.7263 57.4326 16.7263C55.3498 16.7263 53.6456 17.3131 53.6456 18.6953C53.6456 20.2367 55.7285 20.724 58.4989 21.3007C62.7643 22.2057 68.5344 23.5382 68.5344 29.8727C68.5344 35.8393 63.3024 38.9817 56.6852 38.9817C51.513 38.9817 47.6662 37.0625 44.9954 34.8847Z" fill="#007A4C"/>
<path d="M114.477 46.3305L106.474 48.5183C106.265 46.7582 104.77 45.5847 102.577 45.5847H94.0866C88.8048 45.5847 85.3367 42.5517 85.3367 38.0171C85.3367 35.1432 86.7817 32.3687 89.0738 30.9865C86.8315 28.8584 85.4961 25.8751 85.4961 22.5139C85.4961 15.6424 90.9972 10.531 98.3619 10.531C100.445 10.531 102.368 10.9586 104.072 11.6448C104.87 8.71121 107.59 6.85162 111.327 6.85162H113.619V14.0414H111.696C110.41 14.0414 109.404 14.6778 109.135 15.6921C110.47 17.6114 111.268 19.8986 111.268 22.5139C111.268 29.3854 105.717 34.4968 98.3519 34.4968C96.9667 34.4968 95.6313 34.3377 94.3457 33.9598C93.5484 34.4968 93.1199 35.2426 93.1199 36.0382C93.1199 37.2613 94.1364 38.0668 95.5715 38.0668H104.062C109.563 38.0668 113.46 41.0998 114.467 46.3206L114.477 46.3305ZM93.5086 22.5239C93.5086 25.1889 95.5914 27.1579 98.3619 27.1579C101.132 27.1579 103.275 25.1889 103.275 22.5239C103.275 19.8588 101.142 17.8898 98.3619 17.8898C95.5815 17.8898 93.5086 19.8588 93.5086 22.5239Z" fill="#007A4C"/>
<path d="M144.025 20.8731V38.3453H136.232V23.4885C136.232 20.187 134.149 18.0589 131 18.0589C127.641 18.0589 125.339 20.2466 125.339 23.5979V38.3552H117.546V0H125.339V14.0613C127.472 11.7741 130.252 10.5509 133.611 10.5509C139.859 10.5509 144.015 14.648 144.015 20.8831L144.025 20.8731Z" fill="#007A4C"/>
<path d="M158.854 18.2677V28.2319C158.854 30.3103 159.97 31.4837 162.272 31.4837C163.657 31.4837 164.833 31.0561 165.85 30.529V37.8282C164.245 38.6237 162.701 39.0016 160.618 39.0016C154.001 39.0016 151.061 35.1134 151.061 29.5247V18.2876H146.955V11.2072H151.061V4.49483H158.854V11.2072H165.85V18.2876H158.854V18.2677Z" fill="#007A4C"/>
<path d="M168.461 34.8847L172.088 29.8827C174.171 31.6428 176.733 32.8162 179.882 32.8162C182.443 32.8162 184.207 32.0704 184.207 30.6285C184.207 29.0871 182.124 28.5501 179.354 27.9137C175.028 26.959 169.318 25.6762 169.318 19.282C169.318 13.4248 174.44 10.5509 180.629 10.5509C185.433 10.5509 188.901 12.2514 191.462 14.1209L187.834 19.1229C185.801 17.7407 183.569 16.7263 180.898 16.7263C178.815 16.7263 177.111 17.3131 177.111 18.6953C177.111 20.2367 179.194 20.724 181.965 21.3007C186.23 22.2057 192 23.5382 192 29.8727C192 35.8393 186.768 38.9817 180.151 38.9817C174.979 38.9817 171.132 37.0625 168.461 34.8847Z" fill="#007A4C"/>
<path d="M122.888 43.566C122.888 43.6158 122.888 43.6655 122.888 43.6953C122.888 43.7251 122.878 43.7649 122.858 43.7848C122.848 43.8047 122.828 43.8246 122.818 43.8345C122.798 43.8445 122.778 43.8544 122.758 43.8544H121.273V48.4089C121.273 48.4089 121.273 48.4487 121.253 48.4686C121.243 48.4885 121.223 48.4984 121.193 48.5084C121.163 48.5084 121.134 48.5283 121.084 48.5283C121.034 48.5283 120.984 48.5382 120.914 48.5382C120.845 48.5382 120.795 48.5382 120.745 48.5283C120.695 48.5283 120.665 48.5183 120.635 48.5084C120.605 48.5084 120.585 48.4885 120.575 48.4686C120.565 48.4487 120.556 48.4288 120.556 48.4089V43.8544H119.071C119.071 43.8544 119.031 43.8544 119.011 43.8345C118.991 43.8246 118.981 43.8047 118.971 43.7848C118.961 43.7649 118.951 43.7351 118.941 43.6953C118.931 43.6555 118.941 43.6158 118.941 43.566C118.941 43.5163 118.941 43.4666 118.941 43.4268C118.941 43.387 118.961 43.3572 118.971 43.3274C118.981 43.3075 118.991 43.2876 119.011 43.2777C119.031 43.2677 119.051 43.2578 119.071 43.2578H122.738C122.738 43.2578 122.778 43.2578 122.798 43.2777C122.818 43.2876 122.828 43.3075 122.838 43.3274C122.848 43.3473 122.858 43.387 122.868 43.4268C122.878 43.4666 122.868 43.5064 122.868 43.566H122.888Z" fill="#007A4C"/>
<path d="M125.19 44.998C125.19 45.0577 125.19 45.1074 125.19 45.1472C125.19 45.187 125.19 45.2168 125.17 45.2466C125.17 45.2665 125.15 45.2864 125.14 45.2963C125.13 45.3063 125.11 45.3162 125.09 45.3162C125.07 45.3162 125.04 45.3162 125.01 45.2963C124.98 45.2864 124.94 45.2764 124.901 45.2566C124.861 45.2367 124.821 45.2367 124.771 45.2267C124.721 45.2168 124.671 45.2068 124.612 45.2068C124.542 45.2068 124.472 45.2168 124.412 45.2466C124.342 45.2765 124.283 45.3162 124.203 45.3759C124.133 45.4356 124.053 45.5251 123.974 45.6245C123.894 45.7239 123.804 45.8532 123.715 46.0024V48.4089C123.715 48.4089 123.715 48.4487 123.695 48.4686C123.685 48.4785 123.665 48.4984 123.645 48.5084C123.625 48.5183 123.585 48.5282 123.545 48.5282C123.505 48.5282 123.446 48.5282 123.376 48.5282C123.306 48.5282 123.256 48.5282 123.216 48.5282C123.176 48.5282 123.137 48.5183 123.117 48.5084C123.097 48.4984 123.077 48.4885 123.067 48.4686C123.067 48.4487 123.057 48.4387 123.057 48.4089V44.7494C123.057 44.7494 123.057 44.7096 123.067 44.6897C123.067 44.6698 123.087 44.6599 123.117 44.65C123.147 44.64 123.176 44.6301 123.206 44.6301C123.246 44.6301 123.296 44.6301 123.356 44.6301C123.416 44.6301 123.465 44.6301 123.505 44.6301C123.545 44.6301 123.575 44.64 123.595 44.65C123.615 44.6599 123.635 44.6798 123.645 44.6897C123.645 44.6997 123.655 44.7196 123.655 44.7494V45.2864C123.754 45.1372 123.854 45.0179 123.934 44.9284C124.024 44.8389 124.103 44.7593 124.183 44.7096C124.263 44.6599 124.342 44.6201 124.412 44.6002C124.482 44.5803 124.572 44.5704 124.651 44.5704C124.691 44.5704 124.731 44.5704 124.771 44.5704C124.821 44.5704 124.861 44.5803 124.911 44.5903C124.96 44.6002 125 44.6102 125.04 44.6301C125.08 44.65 125.11 44.6599 125.12 44.6698C125.14 44.6798 125.15 44.6997 125.15 44.7096C125.15 44.7196 125.16 44.7395 125.16 44.7593C125.16 44.7792 125.16 44.8091 125.16 44.8389C125.16 44.8787 125.16 44.9284 125.16 44.9881L125.19 44.998Z" fill="#007A4C"/>
<path d="M128.528 48.4189C128.528 48.4189 128.518 48.4785 128.498 48.4885C128.478 48.5084 128.448 48.5183 128.409 48.5282C128.369 48.5382 128.319 48.5382 128.239 48.5382C128.159 48.5382 128.11 48.5382 128.07 48.5282C128.03 48.5282 128 48.5084 127.98 48.4885C127.96 48.4686 127.95 48.4487 127.95 48.4189V48.0509C127.791 48.22 127.611 48.3592 127.412 48.4487C127.213 48.5481 127.003 48.5879 126.784 48.5879C126.595 48.5879 126.415 48.5581 126.256 48.5084C126.097 48.4586 125.967 48.389 125.857 48.2896C125.748 48.1901 125.658 48.0808 125.598 47.9415C125.538 47.8023 125.509 47.6432 125.509 47.4742C125.509 47.2653 125.548 47.0863 125.638 46.9372C125.718 46.788 125.847 46.6587 125.997 46.5593C126.156 46.4598 126.346 46.3803 126.575 46.3306C126.804 46.2808 127.063 46.251 127.342 46.251H127.85V45.9626C127.85 45.8234 127.841 45.6941 127.811 45.5847C127.781 45.4753 127.731 45.3858 127.661 45.3162C127.591 45.2466 127.512 45.187 127.402 45.1571C127.292 45.1174 127.163 45.0975 127.013 45.0975C126.844 45.0975 126.694 45.1174 126.565 45.1571C126.435 45.1969 126.316 45.2367 126.216 45.2864C126.116 45.3361 126.037 45.3759 125.967 45.4157C125.897 45.4555 125.847 45.4753 125.817 45.4753C125.798 45.4753 125.778 45.4753 125.758 45.4555C125.738 45.4455 125.728 45.4256 125.718 45.4057C125.708 45.3858 125.698 45.356 125.688 45.3262C125.688 45.2964 125.688 45.2566 125.688 45.2168C125.688 45.1472 125.688 45.0975 125.698 45.0577C125.698 45.0179 125.728 44.9781 125.768 44.9483C125.808 44.9085 125.867 44.8687 125.957 44.829C126.047 44.7792 126.146 44.7395 126.266 44.6997C126.386 44.6599 126.515 44.6301 126.645 44.6002C126.784 44.5704 126.924 44.5605 127.063 44.5605C127.322 44.5605 127.552 44.5903 127.731 44.65C127.92 44.7096 128.06 44.7991 128.179 44.9085C128.289 45.0279 128.379 45.1671 128.429 45.3361C128.478 45.5052 128.508 45.7041 128.508 45.9328V48.399L128.528 48.4189ZM127.86 46.7482H127.282C127.093 46.7482 126.934 46.7681 126.804 46.7979C126.675 46.8278 126.555 46.8775 126.465 46.9372C126.376 46.9968 126.306 47.0664 126.266 47.1559C126.226 47.2454 126.206 47.3349 126.206 47.4543C126.206 47.6432 126.266 47.7924 126.386 47.9117C126.505 48.0211 126.675 48.0808 126.894 48.0808C127.073 48.0808 127.233 48.031 127.382 47.9415C127.532 47.852 127.691 47.7128 127.86 47.5338V46.7582V46.7482Z" fill="#007A4C"/>
<path d="M130.511 43.5263C130.511 43.6854 130.481 43.7947 130.422 43.8445C130.362 43.8942 130.252 43.934 130.093 43.934C129.933 43.934 129.824 43.9041 129.774 43.8544C129.724 43.8047 129.684 43.6953 129.684 43.5362C129.684 43.3771 129.714 43.2677 129.774 43.218C129.834 43.1583 129.943 43.1285 130.103 43.1285C130.262 43.1285 130.372 43.1583 130.422 43.208C130.481 43.2677 130.511 43.3671 130.511 43.5263ZM130.432 48.4189C130.432 48.4189 130.432 48.4586 130.412 48.4785C130.402 48.4885 130.382 48.5084 130.362 48.5183C130.342 48.5282 130.302 48.5382 130.262 48.5382C130.222 48.5382 130.163 48.5382 130.093 48.5382C130.023 48.5382 129.973 48.5382 129.933 48.5382C129.893 48.5382 129.854 48.5282 129.834 48.5183C129.814 48.5084 129.794 48.4984 129.784 48.4785C129.784 48.4586 129.774 48.4487 129.774 48.4189V44.7593C129.774 44.7593 129.774 44.7196 129.784 44.7096C129.784 44.6897 129.814 44.6798 129.834 44.6698C129.864 44.6599 129.893 44.65 129.933 44.65C129.973 44.65 130.033 44.65 130.093 44.65C130.163 44.65 130.212 44.65 130.262 44.65C130.302 44.65 130.342 44.6599 130.362 44.6698C130.382 44.6798 130.402 44.6897 130.412 44.7096C130.422 44.7295 130.432 44.7395 130.432 44.7593V48.4189Z" fill="#007A4C"/>
<path d="M134.817 48.4189C134.817 48.4189 134.817 48.4586 134.797 48.4785C134.787 48.4885 134.767 48.5084 134.747 48.5183C134.727 48.5283 134.687 48.5382 134.647 48.5382C134.607 48.5382 134.547 48.5382 134.488 48.5382C134.428 48.5382 134.368 48.5382 134.318 48.5382C134.278 48.5382 134.239 48.5283 134.219 48.5183C134.199 48.5084 134.179 48.4984 134.169 48.4785C134.159 48.4586 134.149 48.4487 134.149 48.4189V46.2808C134.149 46.072 134.129 45.9029 134.099 45.7737C134.069 45.6444 134.019 45.535 133.96 45.4455C133.9 45.356 133.82 45.2864 133.72 45.2367C133.621 45.187 133.511 45.1671 133.372 45.1671C133.202 45.1671 133.033 45.2267 132.863 45.3461C132.694 45.4654 132.514 45.6444 132.335 45.8731V48.4288C132.335 48.4288 132.335 48.4686 132.315 48.4885C132.305 48.4984 132.285 48.5183 132.265 48.5282C132.245 48.5382 132.206 48.5481 132.166 48.5481C132.126 48.5481 132.066 48.5481 131.996 48.5481C131.927 48.5481 131.877 48.5481 131.837 48.5481C131.797 48.5481 131.757 48.5382 131.737 48.5282C131.717 48.5183 131.697 48.5084 131.687 48.4885C131.687 48.4686 131.677 48.4586 131.677 48.4288V44.7693C131.677 44.7693 131.677 44.7295 131.687 44.7096C131.687 44.6897 131.707 44.6798 131.737 44.6699C131.767 44.6599 131.797 44.65 131.827 44.65C131.867 44.65 131.917 44.65 131.976 44.65C132.036 44.65 132.086 44.65 132.126 44.65C132.166 44.65 132.196 44.6599 132.216 44.6699C132.235 44.6798 132.255 44.6997 132.265 44.7096C132.265 44.7196 132.275 44.7395 132.275 44.7693V45.2566C132.485 45.0278 132.684 44.8588 132.893 44.7494C133.102 44.64 133.302 44.5903 133.511 44.5903C133.76 44.5903 133.96 44.6301 134.129 44.7096C134.298 44.7892 134.428 44.8986 134.538 45.0378C134.637 45.177 134.717 45.3361 134.757 45.5251C134.797 45.714 134.827 45.9328 134.827 46.1913V48.4189H134.817Z" fill="#007A4C"/>
<path d="M136.79 43.5263C136.79 43.6854 136.76 43.7947 136.7 43.8445C136.64 43.8942 136.531 43.934 136.371 43.934C136.212 43.934 136.102 43.9041 136.052 43.8544C136.002 43.8047 135.963 43.6953 135.963 43.5362C135.963 43.3771 135.992 43.2677 136.052 43.218C136.112 43.1583 136.222 43.1285 136.381 43.1285C136.541 43.1285 136.65 43.1583 136.7 43.208C136.76 43.2677 136.79 43.3671 136.79 43.5263ZM136.71 48.4189C136.71 48.4189 136.71 48.4586 136.69 48.4785C136.68 48.4885 136.66 48.5084 136.64 48.5183C136.62 48.5282 136.58 48.5382 136.541 48.5382C136.501 48.5382 136.441 48.5382 136.371 48.5382C136.301 48.5382 136.252 48.5382 136.212 48.5382C136.172 48.5382 136.132 48.5282 136.112 48.5183C136.092 48.5084 136.072 48.4984 136.062 48.4785C136.062 48.4586 136.052 48.4487 136.052 48.4189V44.7593C136.052 44.7593 136.052 44.7196 136.062 44.7096C136.062 44.6897 136.092 44.6798 136.112 44.6698C136.142 44.6599 136.172 44.65 136.212 44.65C136.252 44.65 136.311 44.65 136.371 44.65C136.441 44.65 136.491 44.65 136.541 44.65C136.58 44.65 136.62 44.6599 136.64 44.6698C136.66 44.6798 136.68 44.6897 136.69 44.7096C136.7 44.7295 136.71 44.7395 136.71 44.7593V48.4189Z" fill="#007A4C"/>
<path d="M141.095 48.4189C141.095 48.4189 141.095 48.4586 141.075 48.4785C141.065 48.4885 141.045 48.5084 141.025 48.5183C141.005 48.5283 140.965 48.5382 140.925 48.5382C140.886 48.5382 140.826 48.5382 140.766 48.5382C140.706 48.5382 140.646 48.5382 140.597 48.5382C140.557 48.5382 140.517 48.5283 140.497 48.5183C140.477 48.5084 140.457 48.4984 140.447 48.4785C140.437 48.4586 140.427 48.4487 140.427 48.4189V46.2808C140.427 46.072 140.407 45.9029 140.377 45.7737C140.347 45.6444 140.298 45.535 140.238 45.4455C140.178 45.356 140.098 45.2864 139.999 45.2367C139.899 45.187 139.789 45.1671 139.65 45.1671C139.48 45.1671 139.311 45.2267 139.142 45.3461C138.972 45.4654 138.793 45.6444 138.613 45.8731V48.4288C138.613 48.4288 138.613 48.4686 138.594 48.4885C138.584 48.4984 138.564 48.5183 138.544 48.5282C138.524 48.5382 138.484 48.5481 138.444 48.5481C138.404 48.5481 138.344 48.5481 138.275 48.5481C138.205 48.5481 138.155 48.5481 138.115 48.5481C138.075 48.5481 138.035 48.5382 138.015 48.5282C137.996 48.5183 137.976 48.5084 137.966 48.4885C137.966 48.4686 137.956 48.4586 137.956 48.4288V44.7693C137.956 44.7693 137.956 44.7295 137.966 44.7096C137.966 44.6897 137.986 44.6798 138.015 44.6699C138.045 44.6599 138.075 44.65 138.105 44.65C138.145 44.65 138.195 44.65 138.255 44.65C138.314 44.65 138.364 44.65 138.404 44.65C138.444 44.65 138.474 44.6599 138.494 44.6699C138.514 44.6798 138.534 44.6997 138.544 44.7096C138.544 44.7196 138.554 44.7395 138.554 44.7693V45.2566C138.763 45.0278 138.962 44.8588 139.172 44.7494C139.381 44.64 139.58 44.5903 139.789 44.5903C140.039 44.5903 140.238 44.6301 140.407 44.7096C140.577 44.7892 140.706 44.8986 140.816 45.0378C140.916 45.177 140.995 45.3361 141.035 45.5251C141.075 45.714 141.105 45.9328 141.105 46.1913V48.4189H141.095Z" fill="#007A4C"/>
<path d="M145.38 44.9284C145.38 45.0278 145.37 45.0875 145.34 45.1372C145.31 45.177 145.281 45.1969 145.241 45.1969H144.713C144.812 45.2963 144.872 45.4057 144.912 45.5151C144.952 45.6344 144.972 45.7538 144.972 45.8831C144.972 46.0919 144.942 46.2808 144.872 46.4399C144.802 46.599 144.703 46.7383 144.583 46.8576C144.453 46.967 144.304 47.0565 144.135 47.1162C143.965 47.1758 143.766 47.2057 143.556 47.2057C143.407 47.2057 143.267 47.1858 143.128 47.146C142.988 47.1062 142.889 47.0565 142.819 46.9968C142.769 47.0465 142.729 47.0963 142.699 47.1659C142.67 47.2255 142.65 47.3051 142.65 47.3846C142.65 47.4841 142.689 47.5537 142.779 47.6233C142.869 47.683 142.988 47.7228 143.128 47.7228L144.085 47.7625C144.264 47.7625 144.433 47.7924 144.583 47.8421C144.732 47.8819 144.862 47.9515 144.982 48.031C145.091 48.1106 145.181 48.22 145.241 48.3393C145.3 48.4586 145.33 48.5979 145.33 48.757C145.33 48.926 145.291 49.0851 145.221 49.2343C145.151 49.3835 145.041 49.5227 144.892 49.6321C144.742 49.7514 144.563 49.8409 144.334 49.9006C144.105 49.9702 143.845 50 143.537 50C143.228 50 142.988 49.9801 142.779 49.9204C142.57 49.8707 142.4 49.8011 142.271 49.7116C142.141 49.6221 142.042 49.5227 141.982 49.4033C141.922 49.284 141.892 49.1547 141.892 49.0155C141.892 48.926 141.902 48.8365 141.922 48.757C141.942 48.6774 141.982 48.5879 142.022 48.5183C142.072 48.4387 142.121 48.3691 142.191 48.2995C142.261 48.2299 142.331 48.1603 142.42 48.0907C142.291 48.0211 142.191 47.9415 142.121 47.8321C142.052 47.7228 142.022 47.6134 142.022 47.494C142.022 47.325 142.052 47.1858 142.121 47.0465C142.191 46.9173 142.271 46.7979 142.371 46.6985C142.291 46.599 142.221 46.4897 142.171 46.3604C142.121 46.2311 142.101 46.0819 142.101 45.9029C142.101 45.6941 142.141 45.5052 142.211 45.3461C142.281 45.187 142.381 45.0378 142.5 44.9284C142.63 44.819 142.779 44.7295 142.949 44.6698C143.128 44.6102 143.317 44.5804 143.517 44.5804C143.626 44.5804 143.736 44.5803 143.826 44.6002C143.925 44.6102 144.015 44.6301 144.095 44.65H145.201C145.201 44.65 145.281 44.6699 145.3 44.7196C145.32 44.7593 145.33 44.829 145.33 44.9284H145.38ZM144.663 48.7868C144.663 48.6277 144.603 48.5084 144.473 48.4189C144.344 48.3294 144.174 48.2896 143.955 48.2796L143.008 48.2498C142.919 48.3194 142.849 48.3791 142.799 48.4387C142.739 48.4984 142.699 48.5581 142.67 48.6177C142.64 48.6774 142.61 48.7271 142.6 48.7868C142.59 48.8365 142.58 48.8962 142.58 48.9558C142.58 49.1348 142.67 49.2641 142.849 49.3536C143.028 49.4431 143.277 49.4928 143.596 49.4928C143.796 49.4928 143.975 49.473 144.105 49.4332C144.244 49.3934 144.354 49.3437 144.433 49.2741C144.513 49.2144 144.583 49.1348 144.613 49.0553C144.653 48.9757 144.673 48.8862 144.673 48.7868H144.663ZM144.324 45.893C144.324 45.6444 144.254 45.4455 144.115 45.3063C143.975 45.1671 143.786 45.0975 143.527 45.0975C143.397 45.0975 143.287 45.1173 143.188 45.1671C143.088 45.2168 143.008 45.2665 142.949 45.3461C142.889 45.4256 142.839 45.5052 142.809 45.6046C142.779 45.7041 142.759 45.8035 142.759 45.9129C142.759 46.1516 142.829 46.3405 142.969 46.4797C143.108 46.6189 143.297 46.6885 143.547 46.6885C143.676 46.6885 143.796 46.6687 143.895 46.6289C143.995 46.5891 144.075 46.5294 144.135 46.4499C144.194 46.3703 144.244 46.2908 144.274 46.1913C144.304 46.0919 144.324 45.9924 144.324 45.8831V45.893Z" fill="#007A4C"/>
<path d="M147.921 47.136C147.921 46.9869 147.941 46.8477 147.981 46.7084C148.021 46.5792 148.081 46.4399 148.171 46.3206C148.26 46.1913 148.37 46.072 148.509 45.9527C148.649 45.8333 148.818 45.714 149.018 45.5947C148.908 45.4455 148.818 45.3162 148.739 45.1969C148.659 45.0776 148.599 44.9682 148.549 44.8687C148.499 44.7693 148.46 44.6698 148.44 44.5704C148.42 44.4809 148.41 44.3815 148.41 44.292C148.41 44.1229 148.44 43.9638 148.499 43.8146C148.559 43.6655 148.649 43.5263 148.779 43.4069C148.908 43.2876 149.068 43.1981 149.267 43.1285C149.466 43.0589 149.705 43.029 149.984 43.029C150.224 43.029 150.433 43.0589 150.602 43.1086C150.782 43.1583 150.921 43.2279 151.041 43.3274C151.16 43.4268 151.24 43.5362 151.3 43.6754C151.36 43.8047 151.39 43.9638 151.39 44.1229C151.39 44.282 151.36 44.4312 151.31 44.5605C151.26 44.6897 151.18 44.819 151.061 44.9483C150.951 45.0776 150.802 45.1969 150.622 45.3162C150.443 45.4356 150.234 45.5648 149.974 45.7041C150.064 45.8134 150.164 45.9328 150.273 46.0521C150.383 46.1714 150.493 46.2908 150.612 46.42C150.732 46.5493 150.851 46.6587 150.971 46.778C151.091 46.8974 151.22 47.0068 151.34 47.1162C151.39 47.0465 151.439 46.957 151.489 46.8675C151.539 46.778 151.569 46.6786 151.599 46.5692C151.629 46.4598 151.659 46.3604 151.669 46.251C151.679 46.1416 151.689 46.0322 151.689 45.9228V45.7737C151.689 45.7737 151.689 45.7239 151.698 45.7041C151.698 45.6842 151.728 45.6742 151.748 45.6643C151.768 45.6543 151.798 45.6444 151.848 45.6344C151.888 45.6344 151.948 45.6344 152.017 45.6344C152.077 45.6344 152.127 45.6344 152.167 45.6344C152.207 45.6344 152.247 45.6344 152.267 45.6543C152.296 45.6543 152.316 45.6742 152.326 45.6941C152.336 45.714 152.346 45.7438 152.346 45.7737V45.8731C152.346 46.0223 152.336 46.1714 152.306 46.3206C152.276 46.4698 152.247 46.609 152.197 46.7482C152.147 46.8874 152.097 47.0167 152.027 47.146C151.958 47.2753 151.888 47.3946 151.808 47.504C151.928 47.6034 152.037 47.683 152.127 47.7526C152.217 47.8222 152.296 47.8719 152.356 47.9117C152.416 47.9515 152.476 47.9813 152.516 48.0012C152.556 48.0211 152.595 48.0211 152.615 48.0211C152.635 48.0211 152.665 48.0211 152.695 48.0211C152.715 48.0211 152.735 48.0211 152.755 48.031C152.775 48.041 152.785 48.0609 152.785 48.1006C152.785 48.1305 152.795 48.1802 152.795 48.2498C152.795 48.3194 152.795 48.3691 152.795 48.4089C152.795 48.4487 152.795 48.4785 152.785 48.4984C152.775 48.5183 152.765 48.5382 152.755 48.5481C152.735 48.5581 152.705 48.578 152.665 48.5879C152.625 48.5979 152.566 48.6078 152.496 48.6078C152.446 48.6078 152.386 48.6078 152.316 48.578C152.247 48.5481 152.177 48.5282 152.087 48.4785C151.997 48.4288 151.898 48.3691 151.788 48.2896C151.669 48.21 151.539 48.1006 151.38 47.9813C151.27 48.0708 151.15 48.1603 151.021 48.2399C150.891 48.3194 150.762 48.389 150.622 48.4387C150.483 48.4984 150.333 48.5382 150.174 48.568C150.014 48.5979 149.845 48.6177 149.665 48.6177C149.496 48.6177 149.337 48.5979 149.177 48.578C149.028 48.5481 148.878 48.5084 148.749 48.4487C148.619 48.389 148.499 48.3194 148.4 48.2399C148.3 48.1603 148.21 48.0609 148.141 47.9515C148.071 47.8421 148.011 47.7228 147.971 47.5935C147.931 47.4642 147.911 47.315 147.911 47.1659L147.921 47.136ZM148.659 47.0664C148.659 47.2056 148.679 47.3349 148.729 47.4543C148.779 47.5736 148.848 47.673 148.938 47.7526C149.028 47.8421 149.147 47.9018 149.287 47.9515C149.426 48.0012 149.586 48.0211 149.765 48.0211C149.875 48.0211 149.984 48.0111 150.094 47.9912C150.204 47.9714 150.303 47.9415 150.393 47.9017C150.493 47.862 150.582 47.8122 150.672 47.7625C150.762 47.7029 150.841 47.6432 150.911 47.5835C150.772 47.4642 150.632 47.3349 150.493 47.2056C150.353 47.0764 150.214 46.9471 150.084 46.8079C149.954 46.6786 149.825 46.5394 149.705 46.4101C149.586 46.2808 149.476 46.1515 149.376 46.0223C149.237 46.1118 149.127 46.1913 149.038 46.2808C148.948 46.3703 148.868 46.4499 148.818 46.5394C148.759 46.6289 148.719 46.7084 148.699 46.7979C148.679 46.8874 148.659 46.9769 148.659 47.0664ZM149.127 44.2323C149.127 44.3019 149.137 44.3815 149.157 44.4511C149.177 44.5306 149.207 44.6102 149.247 44.6897C149.287 44.7693 149.337 44.8588 149.406 44.9582C149.466 45.0577 149.536 45.1571 149.626 45.2765C149.825 45.1671 149.994 45.0676 150.124 44.9682C150.253 44.8687 150.363 44.7892 150.443 44.6997C150.523 44.6102 150.582 44.5306 150.622 44.4411C150.662 44.3516 150.682 44.2621 150.682 44.1627C150.682 44.0831 150.672 44.0135 150.642 43.934C150.612 43.8644 150.572 43.7948 150.503 43.745C150.443 43.6854 150.363 43.6456 150.263 43.6158C150.164 43.5859 150.054 43.566 149.925 43.566C149.785 43.566 149.656 43.5859 149.556 43.6257C149.456 43.6655 149.376 43.7152 149.307 43.7749C149.247 43.8345 149.197 43.9041 149.167 43.9837C149.137 44.0632 149.127 44.1527 149.127 44.2323Z" fill="#007A4C"/>
<path d="M159.262 47.7725C159.262 47.7725 159.262 47.852 159.262 47.8819C159.262 47.9117 159.262 47.9415 159.253 47.9714C159.253 47.9913 159.233 48.0211 159.223 48.041C159.213 48.0609 159.193 48.0808 159.163 48.1106C159.133 48.1404 159.083 48.1802 158.993 48.2299C158.904 48.2896 158.794 48.3393 158.665 48.389C158.535 48.4388 158.385 48.4885 158.216 48.5183C158.047 48.5481 157.867 48.578 157.668 48.578C157.329 48.578 157.02 48.5183 156.741 48.4089C156.462 48.2995 156.233 48.1305 156.034 47.9018C155.844 47.683 155.695 47.4045 155.585 47.0764C155.485 46.7482 155.426 46.3703 155.426 45.9527C155.426 45.535 155.485 45.1273 155.595 44.7892C155.705 44.4511 155.864 44.1627 156.073 43.924C156.273 43.6854 156.522 43.5064 156.801 43.3771C157.08 43.2478 157.399 43.1882 157.748 43.1882C157.897 43.1882 158.047 43.1981 158.196 43.2279C158.336 43.2578 158.475 43.2876 158.595 43.3373C158.714 43.3771 158.824 43.4268 158.924 43.4865C159.023 43.5462 159.083 43.5859 159.123 43.6257C159.163 43.6655 159.183 43.6854 159.193 43.7053C159.203 43.7251 159.213 43.745 159.223 43.7749C159.233 43.8047 159.233 43.8345 159.243 43.8644C159.243 43.9041 159.243 43.9439 159.243 43.9936C159.243 44.0434 159.243 44.0931 159.243 44.1329C159.243 44.1726 159.233 44.2025 159.223 44.2323C159.213 44.2621 159.203 44.2721 159.183 44.292C159.163 44.3019 159.153 44.3119 159.123 44.3119C159.083 44.3119 159.033 44.282 158.963 44.2323C158.894 44.1826 158.804 44.1229 158.704 44.0533C158.595 43.9936 158.465 43.934 158.316 43.8743C158.166 43.8246 157.977 43.7948 157.758 43.7948C157.518 43.7948 157.309 43.8445 157.12 43.934C156.93 44.0235 156.761 44.1627 156.622 44.3417C156.482 44.5207 156.382 44.7494 156.303 45.008C156.223 45.2665 156.193 45.5648 156.193 45.903C156.193 46.2411 156.233 46.5294 156.303 46.788C156.372 47.0465 156.482 47.2554 156.612 47.4344C156.751 47.6034 156.911 47.7327 157.11 47.8222C157.309 47.9117 157.528 47.9515 157.778 47.9515C157.987 47.9515 158.176 47.9216 158.326 47.8719C158.485 47.8222 158.615 47.7625 158.724 47.7029C158.834 47.6432 158.924 47.5835 158.993 47.5338C159.063 47.4841 159.123 47.4543 159.163 47.4543C159.183 47.4543 159.203 47.4543 159.213 47.4642C159.223 47.4742 159.233 47.4841 159.243 47.5139C159.243 47.5338 159.252 47.5736 159.262 47.6134C159.262 47.6532 159.262 47.7029 159.262 47.7725Z" fill="#007A4C"/>
<path d="M163.508 46.5493C163.508 46.8477 163.468 47.1261 163.388 47.3747C163.309 47.6233 163.189 47.8421 163.04 48.0211C162.88 48.2001 162.691 48.3393 162.452 48.4487C162.212 48.5481 161.943 48.5979 161.634 48.5979C161.325 48.5979 161.066 48.5581 160.847 48.4686C160.628 48.3791 160.438 48.2498 160.289 48.0808C160.139 47.9117 160.03 47.7029 159.96 47.4543C159.89 47.2057 159.85 46.9372 159.85 46.6289C159.85 46.3206 159.89 46.0521 159.97 45.8035C160.05 45.5549 160.159 45.3361 160.319 45.1571C160.478 44.9781 160.668 44.8389 160.907 44.7395C161.136 44.64 161.415 44.5903 161.724 44.5903C162.033 44.5903 162.292 44.6301 162.511 44.7196C162.731 44.8091 162.92 44.9384 163.069 45.1074C163.219 45.2765 163.329 45.4853 163.408 45.724C163.488 45.9726 163.518 46.2411 163.518 46.5493H163.508ZM162.82 46.5891C162.82 46.3902 162.8 46.2013 162.76 46.0322C162.721 45.8632 162.661 45.7041 162.581 45.5648C162.491 45.4356 162.382 45.3262 162.232 45.2466C162.083 45.1671 161.903 45.1273 161.694 45.1273C161.495 45.1273 161.325 45.1671 161.176 45.2367C161.036 45.3063 160.917 45.4057 160.817 45.535C160.727 45.6643 160.658 45.8135 160.608 45.9924C160.558 46.1714 160.538 46.3604 160.538 46.5692C160.538 46.7781 160.558 46.957 160.598 47.136C160.638 47.315 160.698 47.4642 160.787 47.5935C160.877 47.7228 160.987 47.8321 161.136 47.9018C161.286 47.9813 161.465 48.0211 161.674 48.0211C161.874 48.0211 162.043 47.9813 162.192 47.9117C162.342 47.8421 162.461 47.7426 162.551 47.6134C162.641 47.4841 162.711 47.3349 162.76 47.1559C162.8 46.9769 162.83 46.788 162.83 46.5792L162.82 46.5891Z" fill="#007A4C"/>
<path d="M167.654 48.4189C167.654 48.4189 167.654 48.4586 167.634 48.4785C167.624 48.4885 167.604 48.5084 167.584 48.5183C167.564 48.5283 167.524 48.5382 167.484 48.5382C167.444 48.5382 167.385 48.5382 167.325 48.5382C167.265 48.5382 167.205 48.5382 167.155 48.5382C167.115 48.5382 167.076 48.5283 167.056 48.5183C167.036 48.5084 167.016 48.4984 167.006 48.4785C166.996 48.4586 166.986 48.4487 166.986 48.4189V46.2808C166.986 46.072 166.966 45.9029 166.936 45.7737C166.906 45.6444 166.856 45.535 166.797 45.4455C166.737 45.356 166.657 45.2864 166.557 45.2367C166.458 45.187 166.348 45.1671 166.209 45.1671C166.039 45.1671 165.87 45.2267 165.7 45.3461C165.531 45.4654 165.352 45.6444 165.172 45.8731V48.4288C165.172 48.4288 165.172 48.4686 165.152 48.4885C165.142 48.4984 165.122 48.5183 165.102 48.5282C165.082 48.5382 165.043 48.5481 165.003 48.5481C164.963 48.5481 164.903 48.5481 164.833 48.5481C164.764 48.5481 164.714 48.5481 164.674 48.5481C164.634 48.5481 164.594 48.5382 164.574 48.5282C164.554 48.5183 164.534 48.5084 164.524 48.4885C164.524 48.4686 164.514 48.4586 164.514 48.4288V44.7693C164.514 44.7693 164.514 44.7295 164.524 44.7096C164.524 44.6897 164.544 44.6798 164.574 44.6699C164.604 44.6599 164.634 44.65 164.664 44.65C164.704 44.65 164.754 44.65 164.813 44.65C164.873 44.65 164.923 44.65 164.963 44.65C165.003 44.65 165.033 44.6599 165.053 44.6699C165.072 44.6798 165.092 44.6997 165.102 44.7096C165.102 44.7196 165.112 44.7395 165.112 44.7693V45.2566C165.322 45.0278 165.521 44.8588 165.73 44.7494C165.94 44.64 166.139 44.5903 166.348 44.5903C166.597 44.5903 166.797 44.6301 166.966 44.7096C167.135 44.7892 167.265 44.8986 167.375 45.0378C167.474 45.177 167.554 45.3361 167.594 45.5251C167.634 45.714 167.664 45.9328 167.664 46.1913V48.4189H167.654Z" fill="#007A4C"/>
<path d="M171.172 47.4244C171.172 47.6134 171.142 47.7824 171.072 47.9216C171.002 48.0609 170.903 48.1901 170.773 48.2896C170.643 48.389 170.494 48.4686 170.315 48.5183C170.135 48.568 169.946 48.5979 169.737 48.5979C169.607 48.5979 169.477 48.5879 169.368 48.568C169.248 48.5481 169.139 48.5183 169.049 48.4885C168.959 48.4586 168.88 48.4288 168.81 48.389C168.75 48.3592 168.7 48.3294 168.67 48.2995C168.64 48.2697 168.62 48.2299 168.6 48.1901C168.591 48.1404 168.581 48.0708 168.581 47.9913C168.581 47.9415 168.581 47.8918 168.581 47.862C168.581 47.8222 168.591 47.8023 168.6 47.7725C168.6 47.7526 168.62 47.7327 168.64 47.7228C168.65 47.7228 168.67 47.7128 168.69 47.7128C168.72 47.7128 168.76 47.7327 168.82 47.7725C168.88 47.8123 168.949 47.852 169.039 47.8918C169.129 47.9316 169.228 47.9714 169.338 48.0111C169.458 48.0509 169.587 48.0708 169.737 48.0708C169.846 48.0708 169.956 48.0609 170.046 48.031C170.135 48.0111 170.215 47.9714 170.285 47.9216C170.354 47.8719 170.404 47.8123 170.444 47.7426C170.484 47.673 170.504 47.5835 170.504 47.4841C170.504 47.3847 170.474 47.2952 170.424 47.2255C170.374 47.1559 170.305 47.0963 170.215 47.0366C170.125 46.9769 170.026 46.9372 169.926 46.8874C169.816 46.8477 169.707 46.7979 169.587 46.7582C169.468 46.7184 169.358 46.6587 169.248 46.5991C169.139 46.5394 169.039 46.4698 168.949 46.3902C168.86 46.3107 168.79 46.2013 168.74 46.0919C168.69 45.9825 168.66 45.8333 168.66 45.6742C168.66 45.535 168.69 45.3958 168.74 45.2665C168.8 45.1372 168.88 45.0179 168.989 44.9185C169.099 44.819 169.238 44.7395 169.408 44.6798C169.577 44.6201 169.766 44.5903 169.996 44.5903C170.095 44.5903 170.195 44.5903 170.285 44.6102C170.384 44.6301 170.474 44.65 170.554 44.6699C170.634 44.6897 170.703 44.7196 170.753 44.7494C170.803 44.7792 170.853 44.7991 170.883 44.829C170.913 44.8489 170.932 44.8687 170.942 44.8886C170.942 44.9085 170.962 44.9185 170.962 44.9483C170.962 44.9682 170.962 44.998 170.972 45.0278C170.972 45.0577 170.972 45.0975 170.972 45.1372C170.972 45.187 170.972 45.2267 170.972 45.2566C170.972 45.2864 170.962 45.3162 170.952 45.3361C170.952 45.356 170.932 45.3759 170.923 45.3858C170.913 45.3858 170.893 45.3958 170.883 45.3958C170.863 45.3958 170.823 45.3759 170.773 45.356C170.723 45.3262 170.663 45.2963 170.594 45.2566C170.524 45.2168 170.434 45.187 170.335 45.1571C170.235 45.1273 170.125 45.1173 169.996 45.1173C169.886 45.1173 169.776 45.1273 169.697 45.1571C169.607 45.187 169.537 45.2168 169.487 45.2665C169.428 45.3162 169.388 45.366 169.358 45.4356C169.328 45.5052 169.318 45.5748 169.318 45.6444C169.318 45.7538 169.348 45.8433 169.398 45.9129C169.448 45.9825 169.527 46.0521 169.607 46.1018C169.697 46.1516 169.796 46.2013 169.906 46.251C170.016 46.2908 170.135 46.3405 170.245 46.3902C170.354 46.4399 170.474 46.4897 170.584 46.5493C170.693 46.609 170.793 46.6786 170.883 46.7582C170.972 46.8377 171.042 46.9372 171.092 47.0465C171.142 47.1559 171.172 47.2952 171.172 47.4543V47.4244Z" fill="#007A4C"/>
<path d="M175.258 48.4189C175.258 48.4189 175.258 48.4586 175.248 48.4785C175.248 48.4885 175.218 48.5084 175.198 48.5183C175.178 48.5282 175.138 48.5382 175.098 48.5382C175.058 48.5382 175.008 48.5382 174.949 48.5382C174.889 48.5382 174.839 48.5382 174.799 48.5382C174.759 48.5382 174.729 48.5282 174.709 48.5183C174.689 48.5084 174.67 48.4984 174.66 48.4785C174.66 48.4586 174.65 48.4487 174.65 48.4189V47.9316C174.44 48.1603 174.231 48.3294 174.032 48.4387C173.832 48.5481 173.623 48.5979 173.414 48.5979C173.165 48.5979 172.965 48.5581 172.796 48.4785C172.627 48.399 172.497 48.2896 172.387 48.1504C172.278 48.0111 172.208 47.852 172.168 47.6631C172.118 47.4741 172.098 47.2554 172.098 46.9869V44.7693C172.098 44.7693 172.098 44.7295 172.108 44.7096C172.108 44.6897 172.138 44.6798 172.168 44.6698C172.198 44.6599 172.228 44.65 172.278 44.65C172.318 44.65 172.377 44.65 172.437 44.65C172.497 44.65 172.557 44.65 172.597 44.65C172.637 44.65 172.676 44.6599 172.696 44.6698C172.716 44.6798 172.736 44.6997 172.756 44.7096C172.766 44.7196 172.776 44.7395 172.776 44.7693V46.8974C172.776 47.1162 172.796 47.2852 172.826 47.4145C172.856 47.5438 172.906 47.6531 172.965 47.7426C173.025 47.8321 173.115 47.9018 173.205 47.9515C173.304 48.0012 173.414 48.031 173.543 48.031C173.713 48.031 173.882 47.9714 174.042 47.852C174.211 47.7327 174.391 47.5537 174.57 47.325V44.7693C174.57 44.7693 174.57 44.7295 174.58 44.7096C174.58 44.6897 174.61 44.6798 174.64 44.6698C174.67 44.6599 174.699 44.65 174.739 44.65C174.779 44.65 174.839 44.65 174.909 44.65C174.978 44.65 175.028 44.65 175.068 44.65C175.108 44.65 175.148 44.6599 175.168 44.6698C175.188 44.6798 175.208 44.6997 175.228 44.7096C175.238 44.7196 175.248 44.7395 175.248 44.7693V48.4288L175.258 48.4189Z" fill="#007A4C"/>
<path d="M177.161 48.4189C177.161 48.4189 177.161 48.4586 177.141 48.4785C177.131 48.4885 177.111 48.5084 177.091 48.5183C177.071 48.5282 177.031 48.5382 176.992 48.5382C176.952 48.5382 176.892 48.5382 176.822 48.5382C176.752 48.5382 176.702 48.5382 176.663 48.5382C176.623 48.5382 176.583 48.5282 176.563 48.5183C176.543 48.5084 176.523 48.4984 176.513 48.4785C176.513 48.4586 176.503 48.4487 176.503 48.4189V42.9893C176.503 42.9893 176.503 42.9495 176.513 42.9296C176.513 42.9097 176.543 42.8998 176.563 42.8898C176.593 42.8799 176.623 42.8699 176.663 42.8699C176.702 42.8699 176.762 42.8699 176.822 42.8699C176.892 42.8699 176.942 42.8699 176.992 42.8699C177.031 42.8699 177.071 42.8799 177.091 42.8898C177.111 42.8998 177.131 42.9097 177.141 42.9296C177.151 42.9495 177.161 42.9694 177.161 42.9893V48.4189Z" fill="#007A4C"/>
<path d="M181.586 44.65C181.665 44.65 181.725 44.6698 181.755 44.7096C181.785 44.7494 181.805 44.7991 181.805 44.8687V48.4189C181.805 48.4189 181.805 48.4586 181.785 48.4785C181.775 48.4885 181.755 48.5084 181.725 48.5183C181.695 48.5282 181.665 48.5382 181.626 48.5382C181.586 48.5382 181.526 48.5382 181.466 48.5382C181.396 48.5382 181.346 48.5382 181.297 48.5382C181.257 48.5382 181.217 48.5282 181.197 48.5183C181.177 48.5084 181.157 48.4984 181.137 48.4785C181.127 48.4586 181.117 48.4487 181.117 48.4189V45.2168H179.224V47.2554C179.224 47.504 179.264 47.6929 179.333 47.8222C179.413 47.9515 179.543 48.0111 179.732 48.0111C179.792 48.0111 179.852 48.0111 179.901 47.9912C179.951 47.9813 179.991 47.9614 180.031 47.9515C180.071 47.9415 180.101 47.9216 180.131 47.9117C180.161 47.9018 180.181 47.8918 180.2 47.8918C180.21 47.8918 180.23 47.8918 180.24 47.9017C180.25 47.9017 180.26 47.9216 180.27 47.9415C180.27 47.9614 180.28 47.9912 180.29 48.0211C180.29 48.0509 180.29 48.0907 180.29 48.1404C180.29 48.22 180.29 48.2796 180.27 48.3294C180.25 48.3791 180.24 48.4089 180.22 48.4288C180.2 48.4487 180.171 48.4686 180.121 48.4885C180.081 48.5084 180.031 48.5183 179.971 48.5382C179.911 48.5481 179.862 48.5581 179.792 48.568C179.732 48.568 179.672 48.578 179.602 48.578C179.413 48.578 179.254 48.5581 179.114 48.4984C178.975 48.4487 178.865 48.3691 178.785 48.2697C178.706 48.1702 178.636 48.041 178.596 47.8819C178.556 47.7228 178.536 47.5438 178.536 47.3349V45.1969H178.018C178.018 45.1969 177.948 45.177 177.918 45.1273C177.898 45.0875 177.878 45.0179 177.878 44.9185C177.878 44.8687 177.878 44.819 177.888 44.7892C177.888 44.7494 177.908 44.7295 177.918 44.6997C177.928 44.6798 177.948 44.6599 177.958 44.65C177.978 44.65 177.998 44.64 178.018 44.64H178.526V43.7749C178.526 43.7749 178.526 43.7351 178.536 43.7251C178.536 43.7053 178.566 43.6953 178.586 43.6854C178.606 43.6754 178.646 43.6655 178.686 43.6555C178.726 43.6555 178.785 43.6555 178.845 43.6555C178.905 43.6555 178.965 43.6555 179.015 43.6555C179.054 43.6555 179.094 43.6655 179.114 43.6854C179.134 43.7053 179.154 43.7152 179.164 43.7251C179.174 43.745 179.184 43.755 179.184 43.7749V44.64H181.546L181.586 44.65ZM181.875 43.5263C181.875 43.6854 181.845 43.7947 181.785 43.8445C181.725 43.9041 181.616 43.934 181.456 43.934C181.297 43.934 181.187 43.9041 181.127 43.8544C181.067 43.8047 181.038 43.6953 181.038 43.5362C181.038 43.3771 181.067 43.2677 181.127 43.218C181.187 43.1583 181.297 43.1285 181.456 43.1285C181.616 43.1285 181.725 43.1583 181.785 43.208C181.845 43.2677 181.875 43.3671 181.875 43.5263Z" fill="#007A4C"/>
<path d="M186.19 48.4189C186.19 48.4189 186.19 48.4586 186.17 48.4785C186.16 48.4885 186.14 48.5084 186.12 48.5183C186.1 48.5283 186.06 48.5382 186.021 48.5382C185.981 48.5382 185.921 48.5382 185.861 48.5382C185.801 48.5382 185.742 48.5382 185.692 48.5382C185.652 48.5382 185.612 48.5283 185.592 48.5183C185.572 48.5084 185.552 48.4984 185.542 48.4785C185.532 48.4586 185.522 48.4487 185.522 48.4189V46.2808C185.522 46.072 185.502 45.9029 185.472 45.7737C185.443 45.6444 185.393 45.535 185.333 45.4455C185.273 45.356 185.193 45.2864 185.094 45.2367C184.994 45.187 184.884 45.1671 184.745 45.1671C184.576 45.1671 184.406 45.2267 184.237 45.3461C184.067 45.4654 183.888 45.6444 183.709 45.8731V48.4288C183.709 48.4288 183.709 48.4686 183.689 48.4885C183.679 48.4984 183.659 48.5183 183.639 48.5282C183.619 48.5382 183.579 48.5481 183.539 48.5481C183.499 48.5481 183.439 48.5481 183.37 48.5481C183.3 48.5481 183.25 48.5481 183.21 48.5481C183.17 48.5481 183.131 48.5382 183.111 48.5282C183.091 48.5183 183.071 48.5084 183.061 48.4885C183.061 48.4686 183.051 48.4586 183.051 48.4288V44.7693C183.051 44.7693 183.051 44.7295 183.061 44.7096C183.061 44.6897 183.081 44.6798 183.111 44.6699C183.14 44.6599 183.17 44.65 183.2 44.65C183.24 44.65 183.29 44.65 183.35 44.65C183.41 44.65 183.459 44.65 183.499 44.65C183.539 44.65 183.569 44.6599 183.589 44.6699C183.609 44.6798 183.629 44.6997 183.639 44.7096C183.639 44.7196 183.649 44.7395 183.649 44.7693V45.2566C183.858 45.0278 184.057 44.8588 184.267 44.7494C184.476 44.64 184.675 44.5903 184.884 44.5903C185.134 44.5903 185.333 44.6301 185.502 44.7096C185.672 44.7892 185.801 44.8986 185.911 45.0378C186.011 45.177 186.09 45.3361 186.13 45.5251C186.17 45.714 186.2 45.9328 186.2 46.1913V48.4189H186.19Z" fill="#007A4C"/>
<path d="M190.475 44.9284C190.475 45.0278 190.465 45.0875 190.435 45.1372C190.406 45.177 190.376 45.1969 190.336 45.1969H189.808C189.907 45.2963 189.967 45.4057 190.007 45.5151C190.047 45.6344 190.067 45.7538 190.067 45.8831C190.067 46.0919 190.037 46.2808 189.967 46.4399C189.897 46.599 189.798 46.7383 189.678 46.8576C189.548 46.967 189.399 47.0565 189.23 47.1162C189.06 47.1758 188.861 47.2057 188.652 47.2057C188.502 47.2057 188.363 47.1858 188.223 47.146C188.084 47.1062 187.984 47.0565 187.914 46.9968C187.864 47.0465 187.824 47.0963 187.795 47.1659C187.765 47.2255 187.745 47.3051 187.745 47.3846C187.745 47.4841 187.785 47.5537 187.874 47.6233C187.964 47.683 188.084 47.7228 188.223 47.7228L189.18 47.7625C189.359 47.7625 189.529 47.7924 189.678 47.8421C189.828 47.8819 189.957 47.9515 190.077 48.031C190.186 48.1106 190.276 48.22 190.336 48.3393C190.396 48.4586 190.425 48.5979 190.425 48.757C190.425 48.926 190.386 49.0851 190.316 49.2343C190.246 49.3835 190.136 49.5227 189.987 49.6321C189.838 49.7514 189.658 49.8409 189.429 49.9006C189.2 49.9702 188.941 50 188.632 50C188.323 50 188.084 49.9801 187.874 49.9204C187.665 49.8707 187.496 49.8011 187.366 49.7116C187.236 49.6221 187.137 49.5227 187.077 49.4033C187.017 49.284 186.987 49.1547 186.987 49.0155C186.987 48.926 186.997 48.8365 187.017 48.757C187.037 48.6774 187.077 48.5879 187.117 48.5183C187.167 48.4387 187.217 48.3691 187.286 48.2995C187.356 48.2299 187.426 48.1603 187.515 48.0907C187.386 48.0211 187.286 47.9415 187.217 47.8321C187.147 47.7228 187.117 47.6134 187.117 47.494C187.117 47.325 187.147 47.1858 187.217 47.0465C187.286 46.9173 187.366 46.7979 187.466 46.6985C187.386 46.599 187.316 46.4897 187.266 46.3604C187.217 46.2311 187.197 46.0819 187.197 45.9029C187.197 45.6941 187.236 45.5052 187.306 45.3461C187.376 45.187 187.476 45.0378 187.595 44.9284C187.725 44.819 187.874 44.7295 188.044 44.6698C188.223 44.6102 188.412 44.5804 188.612 44.5804C188.721 44.5804 188.831 44.5803 188.921 44.6002C189.02 44.6102 189.11 44.6301 189.19 44.65H190.296C190.296 44.65 190.376 44.6699 190.396 44.7196C190.416 44.7593 190.425 44.829 190.425 44.9284H190.475ZM189.758 48.7868C189.758 48.6277 189.698 48.5084 189.568 48.4189C189.439 48.3294 189.269 48.2896 189.05 48.2796L188.103 48.2498C188.014 48.3194 187.944 48.3791 187.894 48.4387C187.834 48.4984 187.795 48.5581 187.765 48.6177C187.735 48.6774 187.705 48.7271 187.695 48.7868C187.685 48.8365 187.675 48.8962 187.675 48.9558C187.675 49.1348 187.765 49.2641 187.944 49.3536C188.123 49.4431 188.373 49.4928 188.691 49.4928C188.891 49.4928 189.07 49.473 189.2 49.4332C189.339 49.3934 189.449 49.3437 189.529 49.2741C189.608 49.2144 189.678 49.1348 189.708 49.0553C189.748 48.9757 189.768 48.8862 189.768 48.7868H189.758ZM189.419 45.893C189.419 45.6444 189.349 45.4455 189.21 45.3063C189.07 45.1671 188.881 45.0975 188.622 45.0975C188.492 45.0975 188.382 45.1173 188.283 45.1671C188.183 45.2168 188.103 45.2665 188.044 45.3461C187.984 45.4256 187.934 45.5052 187.904 45.6046C187.874 45.7041 187.854 45.8035 187.854 45.9129C187.854 46.1516 187.924 46.3405 188.064 46.4797C188.203 46.6189 188.392 46.6885 188.642 46.6885C188.771 46.6885 188.891 46.6687 188.99 46.6289C189.09 46.5891 189.17 46.5294 189.23 46.4499C189.289 46.3703 189.339 46.2908 189.369 46.1913C189.399 46.0919 189.419 45.9924 189.419 45.8831V45.893Z" fill="#007A4C"/>
</g>
<defs>
<clipPath id="clip0_2136_35">
<rect width="192" height="50" fill="white"/>
</clipPath>
</defs>
</svg>
