<svg width="193" height="51" viewBox="0 0 193 51" fill="none" xmlns="http://www.w3.org/2000/svg">
<path d="M4.82 2.2C2.09 2.2 0 4.23 0 6.96C0 8.07 0.34 9.06 0.91 9.85C1.77 11.04 3.18 11.78 4.82 11.78C6.46 11.78 7.86 11.07 8.73 9.92C9.34 9.12 9.69 8.11 9.69 6.96C9.69 4.23 7.6 2.19 4.82 2.19V2.2Z" fill="white"/>
<path d="M4.82003 13.79C3.18003 13.79 1.77003 13.05 0.910034 11.86V38.56H8.73003V11.93C7.86003 13.08 6.46003 13.79 4.82003 13.79Z" fill="white"/>
<path d="M77.12 2.2C74.39 2.2 72.3 4.24 72.3 6.97C72.3 8.08 72.64 9.07 73.21 9.86C74.07 11.05 75.48 11.79 77.12 11.79C78.76 11.79 80.16 11.08 81.03 9.93C81.64 9.13 81.99 8.12 81.99 6.97C81.99 4.24 79.9 2.2 77.12 2.2Z" fill="white"/>
<path d="M77.1201 13.79C75.4801 13.79 74.0701 13.05 73.2101 11.86V38.56H81.0301V11.93C80.1601 13.08 78.7601 13.79 77.1201 13.79Z" fill="white"/>
<path d="M41.4999 20.99V38.56H33.6799V23.62C33.6799 20.3 31.5899 18.16 28.3799 18.16C25.1699 18.16 22.7599 20.36 22.7599 23.73V38.57H14.9399V11.25H22.7599V13.98C24.8999 11.78 27.6899 10.61 31.0599 10.61C37.3299 10.61 41.4999 14.73 41.4999 21V20.99Z" fill="white"/>
<path d="M45.15 35.08L48.79 30.05C50.88 31.82 53.45 33 56.61 33C59.18 33 60.95 32.25 60.95 30.8C60.95 29.25 58.86 28.71 56.08 28.07C51.74 27.11 46.01 25.82 46.01 19.39C46.01 13.5 51.15 10.61 57.36 10.61C62.18 10.61 65.66 12.32 68.23 14.2L64.59 19.23C62.55 17.84 60.31 16.82 57.63 16.82C55.54 16.82 53.83 17.41 53.83 18.8C53.83 20.35 55.92 20.84 58.7 21.42C62.98 22.33 68.77 23.67 68.77 30.04C68.77 36.04 63.52 39.2 56.88 39.2C51.69 39.2 47.83 37.27 45.15 35.08Z" fill="white"/>
<path d="M114.87 46.59L106.84 48.79C106.63 47.02 105.13 45.84 102.93 45.84H94.41C89.11 45.84 85.63 42.79 85.63 38.23C85.63 35.34 87.08 32.55 89.38 31.16C87.13 29.02 85.79 26.02 85.79 22.64C85.79 15.73 91.31 10.59 98.7 10.59C100.79 10.59 102.72 11.02 104.43 11.71C105.23 8.76 107.96 6.89 111.71 6.89H114.01V14.12H112.08C110.79 14.12 109.78 14.76 109.51 15.78C110.85 17.71 111.65 20.01 111.65 22.64C111.65 29.55 106.08 34.69 98.69 34.69C97.3 34.69 95.96 34.53 94.67 34.15C93.87 34.69 93.44 35.44 93.44 36.24C93.44 37.47 94.46 38.28 95.9 38.28H104.42C109.94 38.28 113.85 41.33 114.86 46.58L114.87 46.59ZM93.83 22.65C93.83 25.33 95.92 27.31 98.7 27.31C101.48 27.31 103.63 25.33 103.63 22.65C103.63 19.97 101.49 17.99 98.7 17.99C95.91 17.99 93.83 19.97 93.83 22.65Z" fill="white"/>
<path d="M144.52 20.99V38.56H136.7V23.62C136.7 20.3 134.61 18.16 131.45 18.16C128.08 18.16 125.77 20.36 125.77 23.73V38.57H117.95V0H125.77V14.14C127.91 11.84 130.7 10.61 134.07 10.61C140.34 10.61 144.51 14.73 144.51 21L144.52 20.99Z" fill="white"/>
<path d="M159.4 18.37V28.39C159.4 30.48 160.52 31.66 162.83 31.66C164.22 31.66 165.4 31.23 166.42 30.7V38.04C164.81 38.84 163.26 39.22 161.17 39.22C154.53 39.22 151.58 35.31 151.58 29.69V18.39H147.46V11.27H151.58V4.52H159.4V11.27H166.42V18.39H159.4V18.37Z" fill="white"/>
<path d="M169.04 35.08L172.68 30.05C174.77 31.82 177.34 33 180.5 33C183.07 33 184.84 32.25 184.84 30.8C184.84 29.25 182.75 28.71 179.97 28.07C175.63 27.11 169.9 25.82 169.9 19.39C169.9 13.5 175.04 10.61 181.25 10.61C186.07 10.61 189.55 12.32 192.12 14.2L188.48 19.23C186.44 17.84 184.2 16.82 181.52 16.82C179.43 16.82 177.72 17.41 177.72 18.8C177.72 20.35 179.81 20.84 182.59 21.42C186.87 22.33 192.66 23.67 192.66 30.04C192.66 36.04 187.41 39.2 180.77 39.2C175.58 39.2 171.72 37.27 169.04 35.08Z" fill="white"/>
<path d="M122.39 43.67C122.39 43.72 122.39 43.77 122.39 43.81C122.39 43.85 122.38 43.88 122.36 43.9C122.35 43.92 122.33 43.94 122.31 43.95C122.29 43.96 122.27 43.97 122.25 43.97H120.73V48.65C120.73 48.65 120.73 48.69 120.71 48.71C120.7 48.73 120.68 48.74 120.65 48.75C120.62 48.75 120.59 48.77 120.54 48.77C120.49 48.77 120.44 48.78 120.37 48.78C120.3 48.78 120.25 48.78 120.2 48.77C120.15 48.77 120.11 48.76 120.09 48.75C120.06 48.75 120.04 48.73 120.03 48.71C120.02 48.69 120.01 48.67 120.01 48.65V43.97H118.49C118.49 43.97 118.45 43.97 118.43 43.95C118.41 43.94 118.4 43.92 118.39 43.9C118.38 43.88 118.37 43.84 118.36 43.81C118.35 43.78 118.36 43.73 118.36 43.67C118.36 43.61 118.36 43.57 118.36 43.53C118.36 43.49 118.38 43.46 118.39 43.43C118.4 43.41 118.42 43.39 118.43 43.38C118.45 43.37 118.47 43.36 118.49 43.36H122.25C122.25 43.36 122.29 43.36 122.31 43.38C122.33 43.39 122.34 43.41 122.36 43.43C122.37 43.45 122.38 43.49 122.39 43.53C122.39 43.57 122.39 43.62 122.39 43.67Z" fill="white"/>
<path d="M124.75 45.14C124.75 45.2 124.75 45.25 124.75 45.29C124.75 45.33 124.75 45.36 124.73 45.39C124.73 45.41 124.71 45.43 124.7 45.44C124.69 45.45 124.67 45.46 124.65 45.46C124.63 45.46 124.6 45.46 124.57 45.44C124.54 45.43 124.5 45.42 124.46 45.4C124.42 45.39 124.37 45.38 124.32 45.37C124.27 45.36 124.22 45.35 124.16 45.35C124.09 45.35 124.02 45.36 123.96 45.39C123.89 45.42 123.82 45.46 123.75 45.53C123.68 45.6 123.6 45.68 123.52 45.78C123.44 45.89 123.35 46.02 123.25 46.17V48.64C123.25 48.64 123.25 48.68 123.23 48.7C123.22 48.71 123.2 48.73 123.18 48.74C123.16 48.75 123.12 48.76 123.08 48.76C123.04 48.76 122.98 48.76 122.91 48.76C122.84 48.76 122.79 48.76 122.74 48.76C122.7 48.76 122.66 48.75 122.63 48.74C122.6 48.73 122.59 48.72 122.58 48.7C122.58 48.68 122.57 48.67 122.57 48.64V44.88C122.57 44.88 122.57 44.84 122.58 44.82C122.58 44.81 122.61 44.79 122.63 44.78C122.65 44.77 122.69 44.76 122.73 44.76C122.77 44.76 122.82 44.76 122.88 44.76C122.94 44.76 122.99 44.76 123.03 44.76C123.07 44.76 123.1 44.77 123.12 44.78C123.14 44.79 123.16 44.81 123.17 44.82C123.17 44.83 123.18 44.85 123.18 44.88V45.43C123.28 45.28 123.38 45.16 123.47 45.06C123.56 44.97 123.65 44.89 123.73 44.84C123.81 44.79 123.89 44.75 123.97 44.73C124.05 44.71 124.13 44.7 124.21 44.7C124.25 44.7 124.29 44.7 124.33 44.7C124.38 44.7 124.42 44.71 124.47 44.72C124.52 44.73 124.57 44.74 124.61 44.76C124.65 44.78 124.68 44.79 124.7 44.8C124.72 44.81 124.73 44.83 124.73 44.84C124.73 44.85 124.74 44.87 124.74 44.89C124.74 44.91 124.74 44.94 124.74 44.98C124.74 45.02 124.74 45.07 124.74 45.13L124.75 45.14Z" fill="white"/>
<path d="M128.18 48.66C128.18 48.66 128.17 48.72 128.15 48.74C128.13 48.76 128.1 48.77 128.06 48.78C128.02 48.78 127.96 48.79 127.89 48.79C127.82 48.79 127.76 48.79 127.72 48.78C127.68 48.78 127.65 48.76 127.63 48.74C127.61 48.72 127.6 48.7 127.6 48.66V48.28C127.44 48.46 127.25 48.59 127.05 48.69C126.85 48.79 126.64 48.84 126.41 48.84C126.21 48.84 126.03 48.81 125.87 48.76C125.71 48.71 125.57 48.63 125.46 48.54C125.35 48.45 125.26 48.32 125.2 48.18C125.14 48.04 125.11 47.88 125.11 47.7C125.11 47.49 125.15 47.31 125.24 47.15C125.33 46.99 125.45 46.86 125.61 46.76C125.77 46.66 125.97 46.58 126.2 46.53C126.43 46.48 126.7 46.45 126.99 46.45H127.51V46.16C127.51 46.02 127.5 45.89 127.46 45.78C127.43 45.67 127.38 45.58 127.31 45.5C127.24 45.43 127.15 45.37 127.05 45.33C126.94 45.29 126.81 45.27 126.65 45.27C126.48 45.27 126.33 45.29 126.19 45.33C126.06 45.37 125.94 45.41 125.84 45.46C125.74 45.51 125.65 45.55 125.59 45.59C125.52 45.63 125.47 45.65 125.44 45.65C125.42 45.65 125.4 45.65 125.38 45.63C125.36 45.62 125.35 45.6 125.34 45.58C125.33 45.56 125.32 45.53 125.31 45.49C125.31 45.46 125.31 45.42 125.31 45.38C125.31 45.31 125.31 45.26 125.32 45.22C125.32 45.18 125.35 45.14 125.39 45.11C125.43 45.07 125.49 45.03 125.58 44.98C125.67 44.93 125.78 44.89 125.9 44.85C126.02 44.81 126.15 44.78 126.29 44.75C126.43 44.72 126.58 44.71 126.72 44.71C126.99 44.71 127.22 44.74 127.41 44.8C127.6 44.86 127.75 44.95 127.87 45.07C127.99 45.19 128.07 45.34 128.12 45.51C128.17 45.68 128.2 45.89 128.2 46.12V48.65L128.18 48.66ZM127.5 46.94H126.91C126.72 46.94 126.56 46.96 126.42 46.99C126.28 47.02 126.17 47.07 126.07 47.13C125.98 47.19 125.91 47.27 125.87 47.36C125.83 47.45 125.81 47.55 125.81 47.66C125.81 47.86 125.87 48.01 126 48.13C126.12 48.25 126.3 48.3 126.52 48.3C126.7 48.3 126.87 48.25 127.02 48.16C127.17 48.07 127.34 47.93 127.51 47.74V46.94H127.5Z" fill="white"/>
<path d="M130.2 43.63C130.2 43.79 130.17 43.9 130.11 43.96C130.05 44.02 129.94 44.05 129.77 44.05C129.6 44.05 129.5 44.02 129.44 43.96C129.38 43.9 129.35 43.8 129.35 43.64C129.35 43.48 129.38 43.37 129.44 43.31C129.5 43.25 129.61 43.22 129.78 43.22C129.95 43.22 130.05 43.25 130.11 43.3C130.17 43.36 130.2 43.47 130.2 43.62V43.63ZM130.12 48.65C130.12 48.65 130.12 48.69 130.1 48.71C130.09 48.72 130.07 48.74 130.05 48.75C130.03 48.76 129.99 48.77 129.95 48.77C129.91 48.77 129.85 48.77 129.78 48.77C129.71 48.77 129.66 48.77 129.61 48.77C129.57 48.77 129.53 48.76 129.5 48.75C129.47 48.74 129.46 48.73 129.45 48.71C129.45 48.69 129.44 48.68 129.44 48.65V44.89C129.44 44.89 129.44 44.85 129.45 44.84C129.45 44.82 129.48 44.81 129.5 44.8C129.53 44.79 129.56 44.78 129.61 44.78C129.65 44.78 129.71 44.78 129.78 44.78C129.85 44.78 129.91 44.78 129.95 44.78C129.99 44.78 130.03 44.79 130.05 44.8C130.07 44.81 130.09 44.82 130.1 44.84C130.11 44.86 130.12 44.87 130.12 44.89V48.65Z" fill="white"/>
<path d="M134.62 48.65C134.62 48.65 134.62 48.69 134.6 48.71C134.59 48.72 134.57 48.74 134.55 48.75C134.53 48.76 134.49 48.77 134.45 48.77C134.41 48.77 134.35 48.77 134.28 48.77C134.21 48.77 134.15 48.77 134.11 48.77C134.07 48.77 134.03 48.76 134.01 48.75C133.99 48.74 133.97 48.73 133.96 48.71C133.95 48.69 133.94 48.68 133.94 48.65V46.45C133.94 46.24 133.92 46.06 133.89 45.93C133.86 45.8 133.81 45.69 133.74 45.59C133.68 45.5 133.59 45.42 133.49 45.37C133.39 45.32 133.27 45.3 133.14 45.3C132.97 45.3 132.8 45.36 132.62 45.48C132.45 45.6 132.27 45.78 132.08 46.02V48.65C132.08 48.65 132.08 48.69 132.06 48.71C132.05 48.72 132.03 48.74 132.01 48.75C131.99 48.76 131.95 48.77 131.91 48.77C131.87 48.77 131.81 48.77 131.74 48.77C131.67 48.77 131.62 48.77 131.57 48.77C131.53 48.77 131.49 48.76 131.46 48.75C131.43 48.74 131.42 48.73 131.41 48.71C131.41 48.69 131.4 48.68 131.4 48.65V44.89C131.4 44.89 131.4 44.85 131.41 44.83C131.41 44.82 131.44 44.8 131.46 44.79C131.48 44.78 131.52 44.77 131.56 44.77C131.6 44.77 131.65 44.77 131.71 44.77C131.77 44.77 131.82 44.77 131.86 44.77C131.9 44.77 131.93 44.78 131.95 44.79C131.97 44.8 131.99 44.82 132 44.83C132 44.84 132.01 44.86 132.01 44.89V45.39C132.22 45.15 132.43 44.98 132.64 44.87C132.85 44.76 133.06 44.7 133.28 44.7C133.53 44.7 133.74 44.74 133.91 44.83C134.08 44.92 134.22 45.03 134.32 45.17C134.42 45.31 134.5 45.48 134.55 45.67C134.6 45.86 134.62 46.09 134.62 46.36V48.65Z" fill="white"/>
<path d="M136.64 43.63C136.64 43.79 136.61 43.9 136.55 43.96C136.49 44.02 136.38 44.05 136.21 44.05C136.04 44.05 135.94 44.02 135.88 43.96C135.82 43.9 135.79 43.8 135.79 43.64C135.79 43.48 135.82 43.37 135.88 43.31C135.94 43.25 136.05 43.22 136.22 43.22C136.39 43.22 136.49 43.25 136.55 43.3C136.61 43.36 136.64 43.47 136.64 43.62V43.63ZM136.56 48.65C136.56 48.65 136.56 48.69 136.54 48.71C136.53 48.72 136.51 48.74 136.49 48.75C136.47 48.76 136.43 48.77 136.39 48.77C136.35 48.77 136.29 48.77 136.22 48.77C136.15 48.77 136.1 48.77 136.05 48.77C136.01 48.77 135.97 48.76 135.94 48.75C135.91 48.74 135.9 48.73 135.89 48.71C135.89 48.69 135.88 48.68 135.88 48.65V44.89C135.88 44.89 135.88 44.85 135.89 44.84C135.89 44.82 135.92 44.81 135.94 44.8C135.97 44.79 136 44.78 136.05 44.78C136.09 44.78 136.15 44.78 136.22 44.78C136.29 44.78 136.35 44.78 136.39 44.78C136.43 44.78 136.47 44.79 136.49 44.8C136.51 44.81 136.53 44.82 136.54 44.84C136.55 44.86 136.56 44.87 136.56 44.89V48.65Z" fill="white"/>
<path d="M141.06 48.65C141.06 48.65 141.06 48.69 141.04 48.71C141.03 48.72 141.01 48.74 140.99 48.75C140.97 48.76 140.93 48.77 140.89 48.77C140.85 48.77 140.79 48.77 140.72 48.77C140.65 48.77 140.59 48.77 140.55 48.77C140.51 48.77 140.47 48.76 140.45 48.75C140.43 48.74 140.41 48.73 140.4 48.71C140.39 48.69 140.38 48.68 140.38 48.65V46.45C140.38 46.24 140.36 46.06 140.33 45.93C140.3 45.8 140.25 45.69 140.18 45.59C140.12 45.5 140.03 45.42 139.93 45.37C139.83 45.32 139.71 45.3 139.58 45.3C139.41 45.3 139.24 45.36 139.06 45.48C138.89 45.6 138.71 45.78 138.52 46.02V48.65C138.52 48.65 138.52 48.69 138.5 48.71C138.49 48.72 138.47 48.74 138.45 48.75C138.43 48.76 138.39 48.77 138.35 48.77C138.31 48.77 138.25 48.77 138.18 48.77C138.11 48.77 138.06 48.77 138.01 48.77C137.97 48.77 137.93 48.76 137.9 48.75C137.87 48.74 137.86 48.73 137.85 48.71C137.85 48.69 137.84 48.68 137.84 48.65V44.89C137.84 44.89 137.84 44.85 137.85 44.83C137.85 44.82 137.88 44.8 137.9 44.79C137.92 44.78 137.96 44.77 138 44.77C138.04 44.77 138.09 44.77 138.15 44.77C138.21 44.77 138.26 44.77 138.3 44.77C138.34 44.77 138.37 44.78 138.39 44.79C138.41 44.8 138.43 44.82 138.44 44.83C138.44 44.84 138.45 44.86 138.45 44.89V45.39C138.66 45.15 138.87 44.98 139.08 44.87C139.29 44.76 139.5 44.7 139.72 44.7C139.97 44.7 140.18 44.74 140.35 44.83C140.52 44.92 140.66 45.03 140.76 45.17C140.86 45.31 140.94 45.48 140.99 45.67C141.04 45.86 141.06 46.09 141.06 46.36V48.65Z" fill="white"/>
<path d="M145.44 45.07C145.44 45.17 145.43 45.24 145.4 45.28C145.37 45.32 145.34 45.34 145.3 45.34H144.76C144.86 45.44 144.93 45.55 144.96 45.67C144.99 45.79 145.02 45.92 145.02 46.05C145.02 46.27 144.99 46.46 144.92 46.63C144.85 46.8 144.75 46.94 144.62 47.05C144.49 47.16 144.34 47.25 144.16 47.31C143.98 47.37 143.78 47.4 143.57 47.4C143.42 47.4 143.27 47.38 143.13 47.34C142.99 47.3 142.89 47.25 142.81 47.19C142.76 47.24 142.72 47.3 142.69 47.36C142.66 47.42 142.64 47.5 142.64 47.58C142.64 47.68 142.69 47.76 142.78 47.82C142.87 47.88 142.99 47.92 143.14 47.92L144.12 47.96C144.31 47.96 144.48 47.99 144.63 48.04C144.79 48.09 144.92 48.15 145.03 48.24C145.14 48.33 145.23 48.43 145.3 48.55C145.36 48.67 145.4 48.82 145.4 48.98C145.4 49.15 145.36 49.32 145.29 49.47C145.22 49.62 145.11 49.76 144.96 49.88C144.81 50 144.62 50.09 144.39 50.16C144.16 50.23 143.89 50.26 143.57 50.26C143.25 50.26 143.01 50.23 142.8 50.18C142.59 50.13 142.41 50.06 142.28 49.97C142.14 49.88 142.04 49.77 141.98 49.65C141.92 49.53 141.89 49.39 141.89 49.25C141.89 49.16 141.9 49.07 141.92 48.98C141.94 48.89 141.98 48.81 142.02 48.73C142.07 48.65 142.12 48.58 142.19 48.51C142.26 48.44 142.34 48.37 142.43 48.3C142.29 48.23 142.19 48.14 142.13 48.04C142.07 47.94 142.03 47.82 142.03 47.7C142.03 47.53 142.06 47.38 142.13 47.25C142.2 47.12 142.29 47 142.39 46.89C142.3 46.79 142.24 46.67 142.19 46.54C142.14 46.41 142.11 46.25 142.11 46.07C142.11 45.86 142.15 45.66 142.22 45.49C142.29 45.32 142.39 45.18 142.52 45.06C142.65 44.94 142.8 44.85 142.98 44.79C143.16 44.73 143.36 44.7 143.57 44.7C143.68 44.7 143.79 44.7 143.89 44.72C143.99 44.73 144.08 44.75 144.17 44.77H145.31C145.31 44.77 145.39 44.79 145.42 44.84C145.44 44.89 145.46 44.96 145.46 45.05L145.44 45.07ZM144.71 49.03C144.71 48.87 144.64 48.74 144.51 48.66C144.38 48.57 144.2 48.53 143.97 48.52L143 48.49C142.91 48.56 142.84 48.63 142.78 48.69C142.72 48.75 142.68 48.81 142.64 48.87C142.61 48.93 142.58 48.98 142.57 49.04C142.56 49.1 142.55 49.15 142.55 49.21C142.55 49.39 142.64 49.53 142.83 49.62C143.01 49.71 143.27 49.76 143.6 49.76C143.81 49.76 143.98 49.74 144.12 49.7C144.26 49.66 144.37 49.61 144.46 49.54C144.55 49.47 144.61 49.4 144.65 49.31C144.69 49.22 144.71 49.13 144.71 49.04V49.03ZM144.37 46.06C144.37 45.8 144.3 45.6 144.16 45.46C144.02 45.32 143.82 45.25 143.56 45.25C143.43 45.25 143.31 45.27 143.21 45.32C143.11 45.36 143.03 45.43 142.96 45.5C142.89 45.57 142.85 45.67 142.81 45.77C142.77 45.87 142.76 45.98 142.76 46.09C142.76 46.34 142.83 46.53 142.97 46.67C143.11 46.81 143.31 46.88 143.56 46.88C143.7 46.88 143.81 46.86 143.91 46.82C144.01 46.78 144.09 46.72 144.16 46.64C144.23 46.56 144.27 46.48 144.31 46.38C144.34 46.28 144.36 46.18 144.36 46.07L144.37 46.06Z" fill="white"/>
<path d="M148.06 47.34C148.06 47.19 148.08 47.04 148.12 46.9C148.16 46.76 148.23 46.63 148.32 46.5C148.41 46.37 148.52 46.25 148.67 46.12C148.81 46 148.99 45.88 149.19 45.75C149.08 45.6 148.98 45.46 148.9 45.34C148.82 45.22 148.76 45.1 148.7 45C148.65 44.89 148.61 44.79 148.59 44.7C148.57 44.6 148.56 44.51 148.56 44.41C148.56 44.24 148.59 44.07 148.65 43.92C148.71 43.76 148.8 43.62 148.93 43.5C149.06 43.38 149.23 43.28 149.43 43.21C149.63 43.14 149.88 43.1 150.17 43.1C150.41 43.1 150.63 43.13 150.81 43.18C150.99 43.23 151.14 43.31 151.26 43.41C151.38 43.51 151.47 43.63 151.53 43.76C151.59 43.9 151.62 44.05 151.62 44.22C151.62 44.39 151.59 44.53 151.54 44.67C151.49 44.81 151.4 44.94 151.29 45.07C151.17 45.2 151.02 45.33 150.84 45.45C150.66 45.58 150.44 45.71 150.18 45.85C150.27 45.96 150.38 46.08 150.49 46.21C150.6 46.33 150.72 46.46 150.84 46.58C150.96 46.7 151.08 46.83 151.21 46.95C151.34 47.07 151.46 47.19 151.58 47.3C151.64 47.22 151.69 47.14 151.73 47.04C151.77 46.94 151.81 46.84 151.85 46.74C151.88 46.63 151.91 46.52 151.93 46.41C151.95 46.3 151.95 46.19 151.95 46.07V45.92C151.95 45.92 151.95 45.87 151.96 45.85C151.96 45.83 151.99 45.82 152.01 45.8C152.03 45.79 152.06 45.78 152.11 45.77C152.15 45.77 152.21 45.77 152.28 45.77C152.34 45.77 152.39 45.77 152.44 45.77C152.48 45.77 152.52 45.77 152.55 45.79C152.58 45.79 152.6 45.81 152.61 45.84C152.62 45.87 152.63 45.89 152.63 45.93V46.03C152.63 46.19 152.62 46.34 152.59 46.49C152.56 46.64 152.53 46.79 152.48 46.93C152.43 47.07 152.38 47.21 152.31 47.34C152.24 47.47 152.17 47.59 152.08 47.7C152.21 47.8 152.31 47.88 152.41 47.95C152.51 48.02 152.58 48.07 152.65 48.11C152.72 48.15 152.77 48.18 152.81 48.2C152.85 48.22 152.89 48.23 152.92 48.23C152.95 48.23 152.97 48.23 153 48.23C153.02 48.23 153.04 48.23 153.06 48.24C153.08 48.25 153.09 48.27 153.1 48.31C153.1 48.34 153.11 48.39 153.11 48.46C153.11 48.53 153.11 48.58 153.11 48.63C153.11 48.67 153.11 48.7 153.1 48.72C153.09 48.74 153.08 48.76 153.06 48.77C153.04 48.78 153.01 48.8 152.97 48.81C152.93 48.82 152.87 48.83 152.79 48.83C152.73 48.83 152.67 48.83 152.61 48.8C152.54 48.78 152.47 48.75 152.38 48.7C152.29 48.65 152.19 48.59 152.07 48.5C151.95 48.42 151.81 48.31 151.65 48.18C151.53 48.27 151.41 48.36 151.28 48.44C151.15 48.52 151.01 48.59 150.87 48.65C150.73 48.71 150.57 48.75 150.41 48.78C150.25 48.81 150.08 48.83 149.89 48.83C149.71 48.83 149.55 48.82 149.39 48.78C149.23 48.74 149.09 48.71 148.95 48.65C148.82 48.59 148.7 48.52 148.59 48.44C148.48 48.35 148.39 48.26 148.32 48.15C148.25 48.04 148.19 47.92 148.15 47.78C148.11 47.64 148.09 47.5 148.09 47.34H148.06ZM148.8 47.26C148.8 47.4 148.82 47.54 148.87 47.66C148.92 47.78 148.99 47.88 149.08 47.97C149.17 48.06 149.29 48.13 149.43 48.17C149.57 48.22 149.74 48.24 149.92 48.24C150.03 48.24 150.15 48.23 150.25 48.21C150.36 48.19 150.46 48.15 150.56 48.11C150.66 48.07 150.75 48.02 150.84 47.96C150.93 47.9 151.01 47.84 151.09 47.78C150.95 47.66 150.8 47.52 150.66 47.39C150.52 47.26 150.38 47.12 150.24 46.98C150.11 46.84 149.98 46.71 149.85 46.57C149.73 46.44 149.61 46.3 149.51 46.18C149.37 46.27 149.25 46.36 149.16 46.44C149.07 46.53 148.99 46.62 148.93 46.7C148.87 46.79 148.83 46.88 148.81 46.97C148.79 47.06 148.77 47.15 148.77 47.25L148.8 47.26ZM149.29 44.36C149.29 44.43 149.3 44.51 149.32 44.59C149.34 44.67 149.37 44.75 149.42 44.83C149.46 44.91 149.52 45.01 149.58 45.1C149.64 45.2 149.72 45.31 149.8 45.43C150 45.32 150.17 45.21 150.31 45.11C150.45 45.01 150.56 44.92 150.64 44.83C150.72 44.74 150.78 44.65 150.82 44.56C150.86 44.47 150.88 44.38 150.88 44.28C150.88 44.2 150.87 44.12 150.84 44.05C150.81 43.98 150.76 43.91 150.7 43.85C150.64 43.79 150.56 43.75 150.46 43.71C150.36 43.68 150.25 43.66 150.11 43.66C149.96 43.66 149.84 43.68 149.74 43.72C149.64 43.76 149.55 43.81 149.49 43.87C149.43 43.93 149.38 44.01 149.35 44.09C149.32 44.17 149.3 44.26 149.3 44.35L149.29 44.36Z" fill="white"/>
<path d="M159.67 47.99C159.67 47.99 159.67 48.07 159.67 48.11C159.67 48.14 159.67 48.17 159.66 48.2C159.66 48.22 159.64 48.25 159.63 48.27C159.62 48.29 159.6 48.31 159.57 48.34C159.54 48.37 159.48 48.41 159.39 48.47C159.3 48.53 159.19 48.58 159.06 48.64C158.93 48.69 158.78 48.74 158.61 48.78C158.44 48.82 158.25 48.84 158.05 48.84C157.7 48.84 157.38 48.78 157.1 48.66C156.82 48.54 156.58 48.37 156.38 48.14C156.18 47.91 156.03 47.63 155.92 47.3C155.81 46.97 155.76 46.58 155.76 46.14C155.76 45.7 155.82 45.29 155.93 44.94C156.05 44.59 156.21 44.29 156.42 44.05C156.63 43.81 156.88 43.62 157.17 43.49C157.46 43.36 157.78 43.3 158.14 43.3C158.3 43.3 158.45 43.31 158.59 43.34C158.74 43.37 158.87 43.41 159 43.45C159.13 43.49 159.24 43.55 159.33 43.6C159.43 43.66 159.49 43.71 159.53 43.74C159.57 43.78 159.59 43.81 159.6 43.82C159.61 43.84 159.62 43.86 159.63 43.89C159.63 43.92 159.64 43.95 159.65 43.98C159.65 44.02 159.65 44.06 159.65 44.11C159.65 44.17 159.65 44.21 159.65 44.25C159.65 44.29 159.64 44.32 159.63 44.35C159.62 44.38 159.61 44.4 159.59 44.41C159.57 44.42 159.56 44.43 159.53 44.43C159.49 44.43 159.44 44.4 159.37 44.35C159.3 44.3 159.21 44.24 159.1 44.17C158.99 44.1 158.86 44.04 158.7 43.99C158.54 43.94 158.35 43.91 158.13 43.91C157.89 43.91 157.67 43.96 157.47 44.05C157.27 44.15 157.1 44.29 156.96 44.47C156.82 44.66 156.71 44.88 156.63 45.15C156.55 45.42 156.51 45.73 156.51 46.07C156.51 46.41 156.55 46.71 156.62 46.98C156.69 47.24 156.8 47.46 156.94 47.64C157.08 47.82 157.25 47.95 157.45 48.04C157.65 48.13 157.88 48.18 158.13 48.18C158.35 48.18 158.53 48.15 158.69 48.1C158.85 48.05 158.99 47.99 159.1 47.92C159.21 47.86 159.31 47.8 159.38 47.74C159.45 47.69 159.51 47.66 159.55 47.66C159.57 47.66 159.59 47.66 159.6 47.67C159.61 47.67 159.63 47.69 159.63 47.72C159.63 47.74 159.64 47.78 159.65 47.82C159.65 47.86 159.65 47.91 159.65 47.98L159.67 47.99Z" fill="white"/>
<path d="M164.03 46.73C164.03 47.04 163.99 47.32 163.91 47.57C163.83 47.83 163.71 48.05 163.55 48.24C163.39 48.43 163.19 48.57 162.95 48.68C162.71 48.78 162.43 48.84 162.11 48.84C161.79 48.84 161.53 48.79 161.3 48.7C161.07 48.61 160.88 48.47 160.73 48.3C160.58 48.12 160.46 47.91 160.39 47.66C160.32 47.41 160.28 47.13 160.28 46.81C160.28 46.49 160.32 46.22 160.4 45.97C160.48 45.72 160.6 45.49 160.76 45.3C160.92 45.11 161.12 44.97 161.36 44.87C161.6 44.77 161.88 44.72 162.2 44.72C162.52 44.72 162.78 44.77 163.01 44.86C163.24 44.95 163.43 45.09 163.58 45.26C163.73 45.43 163.85 45.65 163.92 45.9C164 46.15 164.03 46.43 164.03 46.75V46.73ZM163.32 46.78C163.32 46.58 163.3 46.39 163.26 46.2C163.22 46.02 163.16 45.86 163.07 45.72C162.98 45.58 162.87 45.48 162.72 45.4C162.57 45.32 162.39 45.28 162.16 45.28C161.96 45.28 161.78 45.32 161.63 45.39C161.48 45.46 161.36 45.57 161.27 45.7C161.17 45.83 161.1 45.99 161.06 46.17C161.01 46.35 160.99 46.55 160.99 46.76C160.99 46.97 161.01 47.16 161.05 47.34C161.09 47.52 161.15 47.68 161.24 47.81C161.33 47.95 161.45 48.05 161.6 48.13C161.75 48.21 161.93 48.25 162.16 48.25C162.36 48.25 162.54 48.21 162.69 48.14C162.84 48.07 162.96 47.97 163.06 47.83C163.16 47.7 163.23 47.54 163.27 47.36C163.31 47.18 163.34 46.98 163.34 46.76L163.32 46.78Z" fill="white"/>
<path d="M168.27 48.65C168.27 48.65 168.27 48.69 168.25 48.71C168.24 48.72 168.22 48.74 168.2 48.75C168.18 48.76 168.14 48.77 168.1 48.77C168.06 48.77 168 48.77 167.93 48.77C167.86 48.77 167.8 48.77 167.76 48.77C167.72 48.77 167.68 48.76 167.66 48.75C167.64 48.74 167.62 48.73 167.61 48.71C167.6 48.69 167.59 48.68 167.59 48.65V46.45C167.59 46.24 167.57 46.06 167.54 45.93C167.51 45.8 167.46 45.69 167.39 45.59C167.33 45.5 167.24 45.42 167.14 45.37C167.04 45.32 166.92 45.3 166.79 45.3C166.62 45.3 166.45 45.36 166.27 45.48C166.1 45.6 165.92 45.78 165.73 46.02V48.65C165.73 48.65 165.73 48.69 165.71 48.71C165.7 48.72 165.68 48.74 165.66 48.75C165.64 48.76 165.6 48.77 165.56 48.77C165.52 48.77 165.46 48.77 165.39 48.77C165.32 48.77 165.27 48.77 165.22 48.77C165.18 48.77 165.14 48.76 165.11 48.75C165.08 48.74 165.07 48.73 165.06 48.71C165.06 48.69 165.05 48.68 165.05 48.65V44.89C165.05 44.89 165.05 44.85 165.06 44.83C165.06 44.82 165.09 44.8 165.11 44.79C165.13 44.78 165.17 44.77 165.21 44.77C165.25 44.77 165.3 44.77 165.36 44.77C165.42 44.77 165.47 44.77 165.51 44.77C165.55 44.77 165.58 44.78 165.6 44.79C165.62 44.8 165.64 44.82 165.65 44.83C165.65 44.84 165.66 44.86 165.66 44.89V45.39C165.87 45.15 166.08 44.98 166.29 44.87C166.5 44.76 166.71 44.7 166.93 44.7C167.18 44.7 167.39 44.74 167.56 44.83C167.73 44.92 167.87 45.03 167.97 45.17C168.07 45.31 168.15 45.48 168.2 45.67C168.25 45.86 168.27 46.09 168.27 46.36V48.65Z" fill="white"/>
<path d="M171.88 47.63C171.88 47.82 171.84 47.99 171.77 48.14C171.7 48.29 171.6 48.42 171.47 48.52C171.34 48.62 171.18 48.7 171 48.75C170.82 48.8 170.62 48.83 170.4 48.83C170.27 48.83 170.14 48.83 170.02 48.8C169.9 48.78 169.79 48.75 169.69 48.72C169.59 48.69 169.51 48.66 169.45 48.62C169.38 48.59 169.33 48.55 169.3 48.53C169.27 48.5 169.25 48.46 169.23 48.41C169.22 48.36 169.21 48.29 169.21 48.21C169.21 48.16 169.21 48.11 169.21 48.08C169.21 48.04 169.22 48.01 169.23 47.99C169.23 47.97 169.25 47.95 169.27 47.94C169.28 47.94 169.3 47.93 169.32 47.93C169.35 47.93 169.4 47.95 169.46 47.99C169.52 48.03 169.59 48.07 169.68 48.11C169.77 48.15 169.87 48.2 169.99 48.23C170.11 48.27 170.25 48.29 170.4 48.29C170.52 48.29 170.62 48.28 170.72 48.25C170.81 48.23 170.9 48.19 170.97 48.14C171.04 48.09 171.09 48.03 171.13 47.95C171.17 47.88 171.19 47.79 171.19 47.68C171.19 47.57 171.16 47.49 171.11 47.41C171.06 47.34 170.98 47.27 170.9 47.22C170.82 47.17 170.71 47.12 170.6 47.07C170.49 47.03 170.37 46.98 170.26 46.93C170.14 46.88 170.03 46.83 169.91 46.77C169.79 46.71 169.7 46.64 169.61 46.55C169.52 46.46 169.45 46.36 169.4 46.24C169.35 46.12 169.32 45.98 169.32 45.81C169.32 45.66 169.35 45.52 169.41 45.39C169.47 45.25 169.55 45.14 169.67 45.03C169.79 44.92 169.93 44.85 170.1 44.79C170.27 44.73 170.47 44.7 170.7 44.7C170.8 44.7 170.9 44.7 171 44.72C171.1 44.74 171.19 44.76 171.27 44.78C171.35 44.8 171.42 44.83 171.48 44.86C171.54 44.89 171.58 44.91 171.61 44.94C171.64 44.96 171.66 44.98 171.67 45C171.67 45.02 171.69 45.03 171.69 45.06C171.69 45.08 171.69 45.11 171.7 45.14C171.7 45.17 171.7 45.21 171.7 45.25C171.7 45.29 171.7 45.34 171.7 45.37C171.7 45.4 171.69 45.43 171.68 45.46C171.68 45.48 171.66 45.5 171.64 45.51C171.62 45.52 171.61 45.52 171.59 45.52C171.56 45.52 171.53 45.5 171.48 45.47C171.43 45.44 171.37 45.41 171.3 45.37C171.23 45.33 171.14 45.3 171.04 45.27C170.94 45.24 170.82 45.22 170.69 45.22C170.57 45.22 170.47 45.23 170.38 45.26C170.29 45.29 170.22 45.32 170.16 45.37C170.1 45.42 170.06 45.48 170.03 45.54C170 45.61 169.99 45.68 169.99 45.76C169.99 45.87 170.02 45.96 170.07 46.03C170.13 46.1 170.2 46.17 170.29 46.22C170.38 46.28 170.48 46.33 170.59 46.37C170.7 46.41 170.82 46.46 170.94 46.51C171.06 46.56 171.17 46.61 171.29 46.67C171.41 46.73 171.51 46.8 171.6 46.88C171.69 46.96 171.76 47.06 171.81 47.18C171.86 47.3 171.89 47.44 171.89 47.6L171.88 47.63Z" fill="white"/>
<path d="M176.07 48.65C176.07 48.65 176.07 48.69 176.06 48.71C176.06 48.72 176.03 48.74 176.01 48.75C175.99 48.76 175.95 48.77 175.91 48.77C175.87 48.77 175.82 48.77 175.76 48.77C175.7 48.77 175.64 48.77 175.6 48.77C175.56 48.77 175.53 48.76 175.5 48.75C175.47 48.74 175.46 48.73 175.45 48.71C175.45 48.69 175.44 48.68 175.44 48.65V48.15C175.23 48.39 175.01 48.56 174.81 48.67C174.6 48.78 174.39 48.83 174.18 48.83C173.93 48.83 173.72 48.79 173.55 48.71C173.38 48.63 173.24 48.51 173.14 48.37C173.03 48.23 172.96 48.06 172.91 47.87C172.86 47.68 172.84 47.45 172.84 47.17V44.89C172.84 44.89 172.84 44.85 172.85 44.83C172.85 44.82 172.88 44.8 172.91 44.79C172.94 44.78 172.97 44.77 173.02 44.77C173.07 44.77 173.12 44.77 173.19 44.77C173.26 44.77 173.31 44.77 173.36 44.77C173.4 44.77 173.44 44.78 173.47 44.79C173.5 44.8 173.52 44.82 173.53 44.83C173.54 44.84 173.55 44.86 173.55 44.89V47.08C173.55 47.3 173.57 47.48 173.6 47.61C173.63 47.74 173.68 47.86 173.75 47.95C173.82 48.04 173.9 48.12 174 48.17C174.1 48.22 174.22 48.25 174.35 48.25C174.52 48.25 174.69 48.19 174.87 48.07C175.05 47.95 175.22 47.77 175.41 47.53V44.91C175.41 44.91 175.41 44.87 175.42 44.85C175.42 44.84 175.45 44.82 175.48 44.81C175.51 44.8 175.54 44.79 175.59 44.79C175.63 44.79 175.69 44.79 175.76 44.79C175.83 44.79 175.88 44.79 175.93 44.79C175.98 44.79 176.01 44.8 176.03 44.81C176.06 44.82 176.07 44.84 176.09 44.85C176.11 44.86 176.11 44.88 176.11 44.91V48.67L176.07 48.65Z" fill="white"/>
<path d="M178.02 48.65C178.02 48.65 178.02 48.69 178 48.71C177.99 48.72 177.97 48.74 177.95 48.75C177.93 48.76 177.89 48.77 177.85 48.77C177.81 48.77 177.75 48.77 177.68 48.77C177.61 48.77 177.56 48.77 177.51 48.77C177.47 48.77 177.43 48.76 177.4 48.75C177.37 48.74 177.36 48.73 177.35 48.71C177.35 48.69 177.34 48.68 177.34 48.65V43.07C177.34 43.07 177.34 43.03 177.35 43.01C177.35 42.99 177.38 42.98 177.4 42.97C177.42 42.96 177.46 42.95 177.51 42.95C177.55 42.95 177.61 42.95 177.68 42.95C177.75 42.95 177.81 42.95 177.85 42.95C177.89 42.95 177.93 42.96 177.95 42.97C177.97 42.98 177.99 42.99 178 43.01C178.01 43.03 178.02 43.05 178.02 43.07V48.65Z" fill="white"/>
<path d="M182.56 44.79C182.64 44.79 182.7 44.81 182.73 44.85C182.76 44.89 182.78 44.94 182.78 45.02V48.66C182.78 48.66 182.78 48.7 182.76 48.72C182.75 48.73 182.73 48.75 182.7 48.76C182.67 48.77 182.64 48.78 182.59 48.78C182.55 48.78 182.49 48.78 182.43 48.78C182.36 48.78 182.3 48.78 182.26 48.78C182.22 48.78 182.18 48.77 182.15 48.76C182.12 48.75 182.1 48.74 182.09 48.72C182.08 48.7 182.07 48.69 182.07 48.66V45.37H180.13V47.46C180.13 47.72 180.17 47.91 180.24 48.05C180.32 48.18 180.45 48.25 180.65 48.25C180.71 48.25 180.77 48.25 180.82 48.23C180.87 48.22 180.91 48.2 180.95 48.19C180.99 48.18 181.02 48.16 181.05 48.15C181.08 48.14 181.1 48.13 181.13 48.13C181.14 48.13 181.16 48.13 181.17 48.13C181.18 48.13 181.19 48.15 181.2 48.17C181.2 48.19 181.21 48.22 181.22 48.25C181.22 48.28 181.22 48.33 181.22 48.38C181.22 48.46 181.22 48.52 181.2 48.57C181.18 48.62 181.17 48.65 181.15 48.67C181.13 48.69 181.09 48.71 181.05 48.73C181.01 48.75 180.95 48.76 180.9 48.78C180.84 48.79 180.78 48.8 180.72 48.81C180.66 48.81 180.59 48.82 180.53 48.82C180.34 48.82 180.17 48.79 180.03 48.74C179.89 48.69 179.78 48.61 179.69 48.51C179.6 48.41 179.54 48.27 179.5 48.11C179.46 47.95 179.44 47.76 179.44 47.54V45.34H178.91C178.91 45.34 178.84 45.32 178.81 45.27C178.79 45.23 178.77 45.15 178.77 45.05C178.77 45 178.77 44.95 178.78 44.92C178.78 44.88 178.8 44.85 178.81 44.83C178.82 44.81 178.84 44.79 178.85 44.78C178.87 44.78 178.89 44.77 178.91 44.77H179.43V43.88C179.43 43.88 179.43 43.84 179.44 43.83C179.44 43.81 179.47 43.8 179.49 43.79C179.52 43.78 179.55 43.77 179.6 43.76C179.65 43.75 179.7 43.76 179.77 43.76C179.84 43.76 179.9 43.76 179.94 43.76C179.98 43.76 180.02 43.77 180.04 43.79C180.06 43.8 180.08 43.82 180.09 43.83C180.1 43.84 180.11 43.86 180.11 43.88V44.77H182.53L182.56 44.79ZM182.85 43.63C182.85 43.79 182.82 43.9 182.76 43.96C182.7 44.02 182.59 44.05 182.42 44.05C182.25 44.05 182.15 44.02 182.09 43.96C182.03 43.9 182 43.8 182 43.64C182 43.48 182.03 43.37 182.09 43.31C182.15 43.25 182.26 43.22 182.43 43.22C182.6 43.22 182.7 43.25 182.76 43.3C182.82 43.36 182.85 43.47 182.85 43.62V43.63Z" fill="white"/>
<path d="M187.28 48.65C187.28 48.65 187.28 48.69 187.26 48.71C187.25 48.72 187.23 48.74 187.21 48.75C187.19 48.76 187.15 48.77 187.11 48.77C187.07 48.77 187.01 48.77 186.94 48.77C186.87 48.77 186.81 48.77 186.77 48.77C186.73 48.77 186.69 48.76 186.67 48.75C186.65 48.74 186.63 48.73 186.62 48.71C186.61 48.69 186.6 48.68 186.6 48.65V46.45C186.6 46.24 186.58 46.06 186.55 45.93C186.52 45.8 186.47 45.69 186.4 45.59C186.34 45.5 186.25 45.42 186.15 45.37C186.05 45.32 185.93 45.3 185.8 45.3C185.63 45.3 185.46 45.36 185.28 45.48C185.11 45.6 184.93 45.78 184.74 46.02V48.65C184.74 48.65 184.74 48.69 184.72 48.71C184.71 48.72 184.69 48.74 184.67 48.75C184.65 48.76 184.61 48.77 184.57 48.77C184.53 48.77 184.47 48.77 184.4 48.77C184.33 48.77 184.28 48.77 184.23 48.77C184.19 48.77 184.15 48.76 184.12 48.75C184.09 48.74 184.08 48.73 184.07 48.71C184.07 48.69 184.06 48.68 184.06 48.65V44.89C184.06 44.89 184.06 44.85 184.07 44.83C184.07 44.82 184.1 44.8 184.12 44.79C184.14 44.78 184.18 44.77 184.22 44.77C184.26 44.77 184.31 44.77 184.37 44.77C184.43 44.77 184.48 44.77 184.52 44.77C184.56 44.77 184.59 44.78 184.61 44.79C184.63 44.8 184.65 44.82 184.66 44.83C184.66 44.84 184.67 44.86 184.67 44.89V45.39C184.88 45.15 185.09 44.98 185.3 44.87C185.51 44.76 185.72 44.7 185.94 44.7C186.19 44.7 186.4 44.74 186.57 44.83C186.74 44.92 186.88 45.03 186.98 45.17C187.08 45.31 187.16 45.48 187.21 45.67C187.26 45.86 187.28 46.09 187.28 46.36V48.65Z" fill="white"/>
<path d="M191.66 45.07C191.66 45.17 191.65 45.24 191.62 45.28C191.59 45.32 191.56 45.34 191.52 45.34H190.98C191.08 45.44 191.15 45.55 191.18 45.67C191.21 45.79 191.24 45.92 191.24 46.05C191.24 46.27 191.21 46.46 191.14 46.63C191.07 46.8 190.97 46.94 190.84 47.05C190.71 47.16 190.56 47.25 190.38 47.31C190.2 47.37 190 47.4 189.79 47.4C189.64 47.4 189.49 47.38 189.35 47.34C189.21 47.3 189.11 47.25 189.03 47.19C188.98 47.24 188.94 47.3 188.91 47.36C188.88 47.42 188.86 47.5 188.86 47.58C188.86 47.68 188.91 47.76 189 47.82C189.09 47.88 189.21 47.92 189.36 47.92L190.34 47.96C190.53 47.96 190.7 47.99 190.85 48.04C191.01 48.09 191.14 48.15 191.25 48.24C191.36 48.33 191.45 48.43 191.52 48.55C191.58 48.67 191.62 48.82 191.62 48.98C191.62 49.15 191.58 49.32 191.51 49.47C191.44 49.62 191.33 49.76 191.18 49.88C191.03 50 190.84 50.09 190.61 50.16C190.38 50.23 190.11 50.26 189.79 50.26C189.47 50.26 189.23 50.23 189.02 50.18C188.81 50.13 188.63 50.06 188.5 49.97C188.36 49.88 188.26 49.77 188.2 49.65C188.14 49.53 188.11 49.39 188.11 49.25C188.11 49.16 188.12 49.07 188.14 48.98C188.16 48.89 188.2 48.81 188.24 48.73C188.29 48.65 188.34 48.58 188.41 48.51C188.48 48.44 188.56 48.37 188.65 48.3C188.51 48.23 188.41 48.14 188.35 48.04C188.29 47.94 188.25 47.82 188.25 47.7C188.25 47.53 188.28 47.38 188.35 47.25C188.42 47.12 188.51 47 188.61 46.89C188.52 46.79 188.46 46.67 188.41 46.54C188.36 46.41 188.33 46.25 188.33 46.07C188.33 45.86 188.37 45.66 188.44 45.49C188.51 45.32 188.61 45.18 188.74 45.06C188.87 44.94 189.02 44.85 189.2 44.79C189.38 44.73 189.58 44.7 189.79 44.7C189.9 44.7 190.01 44.7 190.11 44.72C190.21 44.73 190.3 44.75 190.39 44.77H191.53C191.53 44.77 191.61 44.79 191.64 44.84C191.66 44.89 191.68 44.96 191.68 45.05L191.66 45.07ZM190.93 49.03C190.93 48.87 190.86 48.74 190.73 48.66C190.6 48.57 190.42 48.53 190.19 48.52L189.22 48.49C189.13 48.56 189.06 48.63 189 48.69C188.94 48.75 188.9 48.81 188.86 48.87C188.83 48.93 188.8 48.98 188.79 49.04C188.78 49.1 188.77 49.15 188.77 49.21C188.77 49.39 188.86 49.53 189.05 49.62C189.23 49.71 189.49 49.76 189.82 49.76C190.03 49.76 190.2 49.74 190.34 49.7C190.48 49.66 190.59 49.61 190.68 49.54C190.77 49.47 190.83 49.4 190.87 49.31C190.91 49.22 190.93 49.13 190.93 49.04V49.03ZM190.58 46.06C190.58 45.8 190.51 45.6 190.37 45.46C190.23 45.32 190.03 45.25 189.77 45.25C189.64 45.25 189.52 45.27 189.42 45.32C189.32 45.36 189.24 45.43 189.17 45.5C189.1 45.57 189.06 45.67 189.02 45.77C188.98 45.87 188.97 45.98 188.97 46.09C188.97 46.34 189.04 46.53 189.18 46.67C189.32 46.81 189.52 46.88 189.77 46.88C189.91 46.88 190.02 46.86 190.12 46.82C190.22 46.78 190.3 46.72 190.37 46.64C190.44 46.56 190.48 46.48 190.52 46.38C190.55 46.28 190.57 46.18 190.57 46.07L190.58 46.06Z" fill="white"/>
</svg>
